<mxfile host="app.diagrams.net" modified="2024-06-19T14:38:29.703Z" agent="Mozilla/5.0 (Windows NT 10.0; Win64; x64) AppleWebKit/537.36 (KHTML, like Gecko) Chrome/125.0.0.0 Safari/537.36" etag="X_9ZQR3l25JlqXuXNJzi" version="24.5.5" type="device">
  <diagram name="Page-1" id="ja_vJpnCkXj90Y-hIXdy">
    <mxGraphModel dx="1795" dy="845" grid="1" gridSize="10" guides="1" tooltips="1" connect="1" arrows="1" fold="1" page="1" pageScale="1" pageWidth="827" pageHeight="1169" math="0" shadow="0">
      <root>
        <mxCell id="0" />
        <mxCell id="1" parent="0" />
        <mxCell id="hxm4mnNIkU-bXcJakGqi-16" value="" style="rounded=0;whiteSpace=wrap;html=1;" vertex="1" parent="1">
          <mxGeometry x="20" y="220" width="750" height="670" as="geometry" />
        </mxCell>
        <mxCell id="hxm4mnNIkU-bXcJakGqi-9" value="" style="rounded=0;whiteSpace=wrap;html=1;" vertex="1" parent="1">
          <mxGeometry x="540" y="400" width="190" height="420" as="geometry" />
        </mxCell>
        <mxCell id="hxm4mnNIkU-bXcJakGqi-12" value="" style="rounded=0;whiteSpace=wrap;html=1;" vertex="1" parent="1">
          <mxGeometry x="555" y="450" width="160" height="350" as="geometry" />
        </mxCell>
        <mxCell id="hxm4mnNIkU-bXcJakGqi-2" value="" style="rounded=0;whiteSpace=wrap;html=1;" vertex="1" parent="1">
          <mxGeometry x="70.01" y="400" width="190" height="420" as="geometry" />
        </mxCell>
        <mxCell id="hxm4mnNIkU-bXcJakGqi-6" value="" style="shape=image;verticalLabelPosition=bottom;labelBackgroundColor=default;verticalAlign=top;aspect=fixed;imageAspect=0;image=data:image/png,iVBORw0KGgoAAAANSUhEUgAAAeAAAAC3CAYAAADKKI1uAAAABGdBTUEAALGPC/xhBQAAACBjSFJNAAB6JgAAgIQAAPoAAACA6AAAdTAAAOpgAAA6mAAAF3CculE8AAAABmJLR0QA/wD/AP+gvaeTAABJLklEQVR42u2dd3hUVfrHP+dOEkCKomDDAqhUOyhiW3XtihUCWHAtCwr23s26dl07iqyuBaUkICrWdW0rPwvK7loQRKWJCIogPWXmvr8/zg2ZTObeuTOZJJPk/TxPHkjmzp075557vuc95y0GpVZIMZENv3XbOlbhlre9+PtftUUURVGUMBhtgsxY/3i3TpjodeJymri0xzWIMFtEnl1f0ebRra/6cp22kqIoiqICnEXWjdn5REPsKcRsIQLiAmK8f0FcmW/cyJ/aXvndv7W1FEVRFBXgWiJFOBu27vo34JLKtqsSXYMI4IInyuUCwza74odJ2nKKoiiKCnCm4lvcu2DDivXPgRlc7e8bRdfEi68nysRcGNj+yh9e0hZUFEVRVIDTFd8ntt2k1G05WQzH1HwxXnTtMnR1S9iscyqcvu2unztHW1JRFEWpxNEmSCG+z+3eep3b6s2k4hs3hTGm6ndT/eXWbp77vBQT0dZUFEVRVIDDiO/DO7dYv279VAMHhVpHSFBeA2AEoM+qBTufrS2qKIqiqACnEt+iQ/LW58sEkCNSHVulu+KJbhJhFi7XVlUURVFUgIPEVzDrt1w0Bji56m8mnAr7LUkbev5+z857a+sqiqIoKsA+rBvT9W8Yc27oNyQR3er/SqWwD9DWVRRFUVSAk4nvYzufZzCXpWMwA6XUtHiTWcL7aQsriqIoKsAJrB2z09EYedxXaZMvQ/8EtKwSXUm+B2zpo62sKIqiqADHsWbMzr2MMBHIC/0mw5fA1vhbvHGHAoaOP96/XSttbUVRFEUFGFg7uvPWjsgbwKZh3yPGzBahczXBNklF2vvX7gO3jbXeWltcURRFafYCLMP75K/9scVYhDSEUeYZkXYG2iXTWoz47gMTjW6u3U5RFEVp9gK8bLM1jyIyoHSl+SyU9Ir5DTFLgU5JD0gRjiQRJ6bdTlEURWnWArzs6m5nYhgOULHa7BqLmVQ1fKPANAz7B4mvfzgSiBtTAVYURVGarwAvu6bbHmJ4Ik49Ny37zflv0HsMTEBkECkOird4q4uykGfyy7XbKYqiKM1SgBdeu1t7gReBah7JsfWyt0TNiqS6anhPYC+MaR2UFSswHAkobZP3k3Y7RVEUpdkJsBThtHTLXgC6JpHPTTb85sxO8ralIiwCdk35AYnL0PH6a/h1y1Gz1mq3UxRFUZqdAC9d0+MW1+UYW7+35uuxDewrFWZJ/J+AR4EzQn+ISfJ/++8C7XKKoigKpJN0ogmw5JIeR4nIjQYDAmLsMrEx1UQzf/0vzqLWnWLber/fLXCWIXw9X1Op7UYg5vweK+PnWDmrceUT7XKKoihKsxLgpefvtGUMeca4OOIJrhHrKWV/l43Lxm4F/dxyfogUsFAw7Q2yS+L5RAzGS66BS1m0wix3y83SaKlZ61bQQsrZQsRsC2zm/WAMJdrlFEVRlGYjwAJmSX7+cwhbi1SJ7UZfKgFjTJUQC2bDMmdxm61jT8bgTqngG4mZUqKUxaKOG6sQB9cUuDHaI3QE2mLjgjsFWsbCp9rlFEVRlGYjwEtG9rhCXI7auNwsprrVa8AKc5UQl8fMY6t/MjcDOyaR0kwuo7ysfP1M7XKKoihKsxDghRf06OOKud2IxC03e6mZTYIQy8bXX3Bwd8ExvTPX2xpm+L+2f2DxBu1yiqIoSpMX4KVn7t66LFbxAoYCMdbxKnH5uYYQC0tdk3dfxESni0tVXudaCrE4ovu/iqIoSvMQ4PIWFY8Zl+4brd4ky89S6bLsLT8Do5xIxT3imtbxS9IY8faKMxLiimhZwSva3RRFUZQmL8ALz+lVKC7D7HJzwvIzNYXYmqm8QJ5sImKO2PineHE2IJI0dCkV/9z+gVkrtLspiqIoTVqAfxzWrVMsxpiNDlbe8rMxgfvAS928vFsisehHNUKTJO49nlqnJ8QyXruaoiiKEk+Ty4QlYKKS/xRCe3Gh8gexsbviGnAB11q34v0fl1EmVnGdCFuKVP7NHl/1e/z5jPd61fl9+GXNepmiXU1RFEVp0hbwwtN7j8TlKPGWjGssPxsrxMTvA8MEIs6vxpVzxGdvWLwCC0ZIWM42cRay1ChFKDBml0e+L9OupiiKojRZAV542m5dY657F1QtDYdYfl6d19K5JhaNvQGYgNCkKiGOW36ufK1GMg97SRV5mCe0mymKoiiJNJklaCnCiVa4z+CaNkjcUnGN5WdTtfxsl5ZvdMuiJ+LSO+5v1Zefvb/VXH421T9j42d6nyVS3PGeb5doN1MURVGarAU87+vdrgI5yMbumo1WbmLBBfEsX896/arFhoKJ5W3KZttj4qzkjSFHJs5qDudN7XlOi3Hy7tIupiiKoiTDNIUvMffkXXs6hv9gaAlxnsnxQumJ60YxBjER5wBM9HSMGVVt7zZOjCv/Fu/tbOLOVXV+qu0rA5O3ffDbQdrFFEVRlCZpAb93yCF5xv1tnBhaVlm5CVavl4DDeAJpfbDkaYO7ShwzvObesLd3XCnEkuDEReqsWgbU+lUURVGargBv2275VYjpEyZWN275eWXULbg2L7/8BcTkVy03S8Lyc5wQJ/Gm9s2qBdM6jZ6jhRcURVGUpinA3xy/5y4m5t6UmCpyo2eyMTX3gQHXNdflRcr2FzFH4FaGJm0UZyvEJBFikghxzaIOMdc112vXUhRFUZqkAAuYua77mAitglJFxi8/e0I8s4XT5rlyWf0/45oqq3ej0xZVTlxG4lJR4h/WRDUhfnaHMbO/1q6lKIqiNEkB/vbI3c8hxuFhU0Vai9ZIBGdkmbPmQiOmm/e36svPJNkHpkqIE5N5JHhOb3Ak/xbtVoqiKEqTFOBZh/TeWlxzr4nP2ZyYocpUZqiqJsTjI1H3OzfCm57BWiM0Ka19YBKyajnmwe2e/HKxditFURSlSQqw4+Q9jNBekqSKTNwHrkoVKaV5bvSG8oK8G3FNe7syXX1vuIYQh1l+rtoHXloRKb1bu5SiKIrSJAV41sF7nSCuDPKtVJSwDxyXKvJBAFxG+ewN19gHNp6o1xBiDDU8pzFX7DR23irtUoqiKEqTE+D3Oh/SMrp69Z/z20l1z2NItQ/8a1604K5YS/OwuNLCLzNW4vJzNYcsSRDquPc6mH/v8PzXE7Q7KYqiKGFpVLmgN2215qpYqXOUG2VZVRnBUCUDbykvKN/BdTk9aRnBjXmcvVzRUqNUoZc7Oi6XtLsxb3S5GM43QQUJFUVRFKWxCvDnXfvsQMxcg5AfWxOZHy+SGwsgJNb7tSI5Z+1v+U86MXMHLhHZWAc4iRC7iUJsqhd1SHivLcJg/tZ53NeztSspiqIo6dBolqCNMQ+JS2sMxMrMPpFy8zP5bJMqVSSYK9t2qNhPxBxP8tAk4r2pIX4f2Neb2lq/jpljWq69VbtR9iiGVhXYnN61IR9KC2FDc2u/16HFSthE2wKKoQ3QEdg8zuJwK2B5BJY3xzapa16Gtmt9dCUfKgphbS3v6aYVjbiKXzsoGwDrG5UAf9al7xEi5qQqcZRIxRpnUf5m7jZBqSKNOO/2/OC/r83+4x7/V11MqSqasHEvN86JK1lWLWpk1YoaV87q8syC0lxtt0nwZwNjk7xUHoHOp8LPOTfRghvzISuZxIpTH7IGiAIxYLW3DvIL8IvATwZ+AN4dBF80hi2GYnhrLRyZX/Old4E/NtVBfzL0FujvQl8DfYBtgA5Ai8RjXSBS1V7rgO+Abwx8DXy8Av5vBFTU83N6sYEin5ffLYSBjeVelMFb+dDf5+WpwCm1/Ij/5kOXxtpXS+EfwLmNRoBn9e5dsGG9eWTjXq3nveyWm75uhbvYyWM7v1SRIrHrvzlkz5NwZf+UZQRTeFPXKOoAN3ad+vWMXG03AVMCl/m8XBCFEfg/9M2FtnH/7+D9uxNULxNWAotL4LEIjD0FfstR8T0CONLn5UMnQs8h0GS2Soqhl8BZBk51k9yzkLQG9gT2rJxdtYc1xfCOgXErYFp9iLEDLQXah+ijShMj50350vWtrgS6xyuL5zQVqVgV+Vnina5cqvaBY7zUa/qXM4xQVPk3qb43XNOJq9o+MJ6KJ+wDCyDmxa5Tv7onxweoPwI9AyzN819PYiEoSdlO4I4o/DgJRo+HrXLwGi8LWlhwYGRjvwlF4JTAoGL4P2CWgasrJ0xZnpSdJDClPSycBHdMsRZ1neEGzx2MPn4qwA3CjJ322d7Fv7CBRE1ft8JZWFM4ccUxRd8cuOdA12WPKierBCFOdOJK7U2NiLy1SSz/zFxfkjRwUYpDtloDQ/QRSItWBkbmwdwSuEJyZHCcaEXoqBSHDXu5kVpTAqYYBvaCL8TuLOxfTx+9jYHrYvBtMVxbDK0a5lFWVIAboue5/A1oLVWGb41DoqudX8XzgKbKSp3Ye/p/vwJzE4lWb6IQVwtDosqbOi4MqcpiNtPyV689adtpM9fncrtNgM7AcSGe7Iv1EciIdgL3lcDLz0O7HJhsXRDiWW5XCsMaW0NPht1L4H2gBNi1gS6jLXAnML8YBtfB/VMLWAU4t5jZud9+JHE+SBRicekTK2dB3PJzLBaN3Tqr/16DJcZuPqFJ1Zefa4QhkRiGVIHLX3Zp3f3kLu8vKP163732mNV3j71yte0idn83EuLQvUvgIH0MMmZAAXzsTXgahGJrlZ8dcqAfKY1kQH8dWpTAvS7MBA7OkcvaCphYDE8WQ4EaSUptyUknLAHzueG+uCzNyY7ZOHt010V+c9rFOhtbnejpOV27f99z4fdTSRKaFFBG0KeoA5+LK+d0/9dXs77ok/+HL/fe+yI3xkk4BTvn6sC1Fs5Jo60vAj5sJP21zOda87EhJ6msmMT+3i7JRGXTNAe9XhF4bwocciosbADrd4jEhdmkutbJcBjwTi7f5InQbS1MAPbO8BTrgPneTynWwz3mvdYeG+bWBehKQshWSM4Fur4Ap54OK7NhAYtawNlgMbAsly9QEsaInBTgzzrvU2iQA5L3QalpEbv0cSv43sljB3Fjd/Rc8MNQwfRMFppUrXpRVRlBz9M5rqgDMtuNOo/GVuf/QkzO/3KPPseZmOzopaecv8dnn83LxbZbC4XAlmm85aQJsO1QWNIIHrDfCq23b50yHjo4sLOBwQaGhxikO8fgzWLYrxBW1fMDPTLN40flsgCXwEECL+PvFezT7XlF4J08eP9UCP1sFkMv7KTkCOBowlu2h+bDxxPhuCE2XK0O51hKyIZ6cBD8TS3gWjCrd++CtevNbf49zyQV4tiGyBrTxh0zt3v3RT3mzXsTJGloUlz1okqrd60DvwpmtcQoc11cok6ZW2baCTxijDheMYeqnNEiL+fwPR2V5vH5jhWZIn2ELafBcuzPJ8VwN3b/708p3tYDGC9wfH056E2Gfi70TfNtJxTDDoWwKNfavRhOEJhE+EQs/wUeBiZnmuChEL7B/jxaDJsLFBr4c0jru7sDH06A/YfCgky/t1u11KcC3MzIOQFeu6H1hQZ2jpfYMEIsLr3KY86J3b+bd4Yg3axng5SJMb8Jzgpcyowr4rqOIzFaS8y0R9hChDYYaQNV8b7E1/tNUinJGDMxF2/mZOjrQj+fl7/AZv7ZL0lLDi+GOwqhXB+JGgP0UuDsSfCGgWcI9oQ9djJcAl7lrTomBiMDRucFJN+bjgicT5aSnWRRfI+2/4QKjZtr4MaBMDmbk51CWAGMAcYUWyfGB/HGogC2icCbL8IBdRQjrgLchMmpDf4PdziwvXG5IfHvPh7Qcf3TIMI/nBbu0vJ1ZlTF2sjy8lURyn7Pa1G+MrJtxUpn14pVTp/yNZG+0XVm71ip6e5WsKUbtbmhw+Z9tgUZ+GaPL2d+mos30w2wfg3cL/B3v0FE4FR9HPwZbMXhSFLs+QncOcXuLdYpL0B7Y7cbkjE9Yp3ryn36wnm5FANeAocAL4YQ3xhwVxvYfRCU1OVKQyG8BuwOPB7GEo7CtEzDlNQLWgU4J2jhlN0MbO6nuAHhSBUxIvfIyrwziZp9JEaH+IMCBVx84n3jEm9UK9AQS5rascEZbzM5+cX1/t4SJpfZ5b1VPk/5Rfo4pByUpztwDHG5XJPQMlYPFnAenInPUq3Ak6fCYrGhO8nouK4OwmkytHx7iU1RmEq85jtwQCFcd6x1xquP+72h0O6xjyD16lB/sdZzkx6jlSZ6cz/fvs9OYEaGNX2rvWT4x48Ltv8RkWuq1pBTvMdPiCWJEG+MFTYrC5zSp3LxRkasZ2ZLH3F9egCsHwbrBJ7zG0Amp7+f2OwYCJ8CQwm2vgYUw4F1dQ1F4ARMmH4vg8nefX84oLs3eGYsL6PYa8BmKQ6dEYX+Xts3xMRrrIHDgV9TWLLDSjLIdawWsApwgxPLi/xFoEDSVE6Biqjr3NW5y4KhQLfq/Ta5GIcV4sSShQZ5rPesWWtz7SYWQ8TYfb1kuAKPxX29x/2+fgzO00ci1ID8iqRemrylrj6/NwzAZ2/SwJPDbBgOhTAD66iUjH4NOeEqAicPxpM6hvr9VnDoaQ0cXjLIhr8dSQovd4EHp2UW2qQCrALcMMzYYZ/eCENTCmSSNWhjeGq/BZ8sAnNNqn3idIW4quawAdeUxRwZnaP38biAgeytQvi+8hcvIf/7Pq102sua/D3sqHgNNu7Qj8MnBuTirg3in8Es6sCjCdf5hO+ktwGt4J5wAzb8J3BoaAEnDAhe8q/Pidf/jJ38BF3P9uvT3M7RXNAqwA2K6zi32nzxaQtkRUTy7vq8S79T8NLUhXHYykiIXXm+7+yZP+fofQxyvnosyVfy26tqW273FpXUg/FagXtTPFxZX1Eoht0ChOulxGQgBdbKXOPTN4a8CFs0wIpNdwM3pjjs6zw49kSfa29IS9jY/XM34Jn7k1rASqMQ4E926NfHwMmZCKTAuL3nf7QQ5Nq0RDXF5yRz8pKYuSMXb2CxrRTll5xi/ix4Pcm3fwlb9zZZG4wSfehDsQk8iQ1d8eOUOvjYCwJ6dY093xNhjYEXfN7SKhZXm7QeeYDghBe/xeDYXC39OAhexT/hwzfAGWkqrFrAKsANg3HktpqdLJQQx3C4+5Mu/Y4UoU8GntOk4bD10D6LcjPzlbHLiMbnOzxRlGSmXgjlAYNyr2IbFqKkYACs9yYzfnSeDL2z9Xle4Qe/wf3LQT4pRWMB3rkCFxSHyxueFSbBsVhPcgKu6byh8GMu3/tWNnHN0rg/rQOuA/YqtPmrm8wYrTRRAf6ka78DBXN0hpZqcb95M+Y64l4X1vTNUIi/Lq/IuzlHrd82Amf5vFxm4B8Bg9wTfs1hmkDt2PpCbPyqL26SxCeZ0sKKb1uf63jU731DbBKWj/0mCYSonJWl/rqpgedTTCiLBwdPanJm8iXwF6yT4wsx6FkId2WSzEYtYBXghrHeXLktQ0tVMNz9Sed++wnmkAw8p1N8zsbPWu+4kcL9F3+8IUcH/zOwxQOSjneFAWEThfAt8IbPyycVQyd9PEIxM8XgunsW77ff8vPKMrvXS4oJlx/1MuEyMIjgHM9rBS5vLDd+MIxpA5sMhjPq0GJXAVYBzj6f7rjvYYL5Q4aW6hv95s/4wiDXpHxPgLKn2Cd2wTmrz8JPZufqzTMBzlduEuerJO9/yOelPGx+aCUFg2x4zLoA4dshG58zyZbk29XnPj4zLOAaALzYYL8QuiOKU6dcrMsJRCV3FcJPjen+ZyMpiHpBqwDXO67jXC8YWyaQ9CxVQ+Sej3fcryeYE9IS1fBCXGEMZ+4z/9PJuXrjiuEP+Bco/88Q+CTVOQbC21inkWScU597g40VLx3i8oBDtszS5/iFtlSL8/bDE+hJfuOA+MeRZ7O/BhU4WFZaTzm0G18XU1SAs8j0rgf0FTF/rBTfdIRYYMa+Cz7+wHG4wl5/5qFFPn/+XURO6DtvxvgZnffZOoc9gkcFfL3RIZ9sAd/UmtsZOFEfkVBEA15rVduTT4HtgJN8Xq4W552CxwP6wtnFWbjWAC5J0RfvSmXFqwArKsDZ+FDXvSqZ+IYRYuCOGZ332Rpxz6jZT2spxMa8kUfenq1bt57+WZd9r8c4o+qrtFw6TIBtAwbkFcYWMw/LOGzR8mTNc6k+IrUW4FqvIrh26davclno5DCed67fysjmxj+XeG2t380JdvRaK/B0M1ZYXYJWAa4fPtjx4C6uOKcEiW+AEM/pt+DTaWLMhYJp4d9f04rxBZfFIGdGy50/RyV21rr1638QuDxa4TyQizctYpPD5/uI5tOFtuxg2EF5Bf6evAdNDFcXtbkTVL+2VlmcnoaWYuvTJuOHb/wd6fyejrEB89E6ccbyKm0Fxf1OKkyR4lEtYEUFOBsf6LhXYMgLI76V/6/83SB3fbnV7q1EzAUpRTVcjO+PAk8IjEHM2XmR2AKQvwBbYsxV+y/+eEWu3bBiO5D5DciuhCuflthSfw947RJ9TFISlE3q99qcuI0tOdjR5948XhSQkSkZG2xZRT+x61sM+9aBgpyQ4pDxzVxh1QJWAa57Ptqu/+aI+VO8sIb5ARAxi9u0XjehdJOWZ2OXtPxENR0h7gSMMIbbgMMw3jKfyNv7zPv0mRx9WE8BtvF5+a0h8EO65xwIHwBzfT6v0Ct1qCTBq6vbJuB+1So8Rfydr9aXB8R5++Hts44L+LxRWZ4wRrC1if1Y9o1PbnJFBVgFOIuU5xVcKNA6Heu38v/AA7Nm9Yq54lyaiee0jxA7Sd6zzBH3rFzc+00xICfN+xzyCRdsWsVktMyDs/VRSc7a1AUX5tdCvPrjU7FIYPzpsDLDU/tWxKqDCdee+MeqI/B6ulZ8UyNFGJJmwlIBrj2fb9tnE4NcmIn4CmZ1fqTiqU5dfjpZMDslHpOZECfdJy4Vw6C+C3Oz6EIx9AH29xvok+V9DksePIt/Fp8RRToQ+NEnxev/q8W5LwyYNGVcmavQhp75WZ0tI9nND90nxeRvmnYhtYBVgOuYdfmtzxZMxwzEFxEztu+8masEc2nQ8ekJcQ2r2MUwrN/8GR/m8JMYVOYs7f3AeE6xxRle9nl5p162FqqStOn8jRuBzzOcbG0NDPR5eXph7YQdAlZLDJyfrRjwVJnAYhm2TxNTWN0DVgGuOwSMa5yLMhFfhCgR88iHOxzYx4gckIHndBghLhfM6f3mzyjJ1RtVDB3FlkFLRmleBvuBSRgT8Jrmh05ggs2jfHTAIf8NSgeaYlAegY/ncG2s30pW2snWEp+XO5Ol/NASLMBrhwTXVFZUgFWAa8s7Xf54uGC6py2+gBhTcuC86YtMRC5L971BQlwlxvKrcd1j91vw6cRcvlFeKIpfuMvEbJRuGwTvAXN8Xj5uCnTVR6baw3NVimfolUzO+x7kBYQe/bwCptT22kdAhQR4vxOw/J0muwS8NjdXfS3UAlbqg7x66WAiIyvF0fYoCf1/gzw0ffsDthUxgxKPCd/BxU/U3nejkTP2X/zxTx9t179VrhZdeA/yfg3Io+tm6HyV5EmXEhuWlSz+2YlZD9kr9LGBybCL6y+SAG4Mnsvk3L/AicanGIbA2BFQkaX7/XfgBp9x4PDJ0GOg/4QsJUV2ctIx4JB52pNSsmlx48rLvlUDGin75VhbvZsqS12dC/BbOx25PdHo8WKCBdeHfx+84MNPP+hy8G1GpCCZsKYr6h4/iZhr8isqpla0yD/+k879LnTc6F+Ad3KxRy+Hk7HpCJMxYwh8lq3PKodn8+EOkqclPOc5uLm5pwwsAse1CS3yAw57eSgsyFAY/SZbFXnBVY3SohB+KrZL0acmuwzXTrguyvT8e0C7ioC9ZJO5F3eTwgUTMAp2JIv3vIkzEH+/iYbgdFIIcJ0vQTtRd7gYkxcq1jfh/y7OAx9t178VLiMy2j+u+f9fY0gJhieMkWHRgrzlRmQSsPOCRZ3fz9VelSL0aHSWe8xKAb/l+M1awJnN/SnvZQuvHxJ0y1xbKzYTy7oHcJhPP5hyKvyc5b4VtO8/7GWf+sMhz12Q4vXfVTOU5kydCnARRQ6GszIUze8OWfD+K+X5BWeIMR2yIL4IpqODM0jE3CqYI+OsvEmFlMRy8QZNhr3wT2SwfK3NbJRVTMCgbOBCacb7UsV2AvLXFIdNGAJfZGgNnY9/+z6a7e8zG97FP3lLuzI4K9NzR4NXCFSAq54p3edVAc4+B3SefoRgts9INA0PG3AR6wySBfH1/b9rnAm5eoNcuDjgwX3qbJ9CCrWhEGbgX2i+92QfCy1L3zdnB6MS6wn+D4KvcSUZ7pM/B63xF7z/Dob/y/4kGTcoPzQwKtMJVyT1+8p1CFZUgOtsMHXOzlAc12yItHru3R0O/aNgdq9L8RXMvP7zP/4sF2+Ol5HIr0JNLBq8fFhnVrDUYl8w3LidW7wIW5bAOK/MY16KdruiEJZm8jmt4AxgM5+XR9fV96uwkwq/wvI9SuDwTM5bltpZrBWKkvbQpAKckre7Hr4pXhL2DMTxH8d+/8ZqccyFdSC41X4M8lyuhkLkwzn4hx69lqmTTxg22JKGfkn7jy+GLk39SZ8CO5bArVH4Vqw4puKpQbUoqxeQh3llq/RKTKbFabCc4JCpjEKSWgaXaVQBrrrvoq3QPKkzL+iomzfEIK2qpi2hPZZd13FGv9318B1w3QGeSKZ8b/jpU7X3u65xnsnFG1MEjthkDH7TwNF1+fnDYN0kmGiSX0PE2OXYq+q5WVpMStMaM9DCwCY+A19LoJWBPBfaGmjr/W1zA31j0DuNSer0dbWInZ0EBwO7+bz89IBaljUMIQJPGRjk8/JxE6BzuhO+KKyxp07+kDp2yV0JZonUYh++AczTh4BeDWEBCzxo4Pkcao6UeeDrMgxpaCZxv8CbR857+7t/df7jHYKJhL8r6YckuThvHzR/+sJc7Mg9bYYlv8QXcwfC2/UwM3/GR4AROKcYbk6n9nAW2MJk8L0lxOsm1dMdzGflcFxt9uMdu9eaDJcMSkymy2x4u5cV2M7JJlwRO+G6Op1zFkJ5MazGpxiDJP+sZocDEtBH1w+GfzWW71LcgHWdHVg8yN93JVfvffb55/ZHbCuYA9MtO+hZu48U9x5UIJhz6mrft/L/GJ7K4ZnkBQEvP1Yfy+ZD4BP8Y4w3Fxiqwydv58ORZ1ihyXTQ6iQ21jsZb6UK5s/SiouLf0UssBOuTJaMFwW81k27T63nj80N3QNORYWTP0QwkbTFUcz30xcc9M/N1v9eKJit6lJ8RczyNZG2r+TiTfFyDB/r8/K6fFu5qL54MMNJQpMfGA080BGOPbn24TTD8Q/ZGV2P3+kp/B2ntgBOy2C0DArH6lqcg053KsAqwI1agAUzNMPQo0eKKHJFTJ2HHgGPH/v9G2W5eFMidtnX7968cHI9xk+uhBJgmc/LfYth32Y4CHwHHDoILj80taNRKuu3AP/0efO+gTfq60t53tsvBxyS9h63GyzABa4uQ6dywlIBbsJkfQ/41R2O6yrG9M1gT3aN47jPvr7jMXtBrF+G+8dh/18WM5HHcvGGvA4t1lrvZ7/p35ISf2eZWuN6TkvG9o1NgU0leJ/3AmzccHNgkYE7BJ4uzFIMq8CpxpYeTCrAveC8hEwrMROw3C2wXryQohQOaK1JnqkqaA9vz0lw8GD4d5YsYAz0xz8RiKIC3KQt4KwLsOs4J2YkjsaMO2Lev1a92fmoi+pYfBEx4w5d+P7SXLwh62wu0y0Dnsai+ujdaTz1g4tt7OuKJvrA/2Js8fpxHeDN2lq8Sdp7VMDLh5PE61vSGKEk+/3jEtIQ4HL4tMC2WZ7P+Y4ktzxXG8QCNirAKsBZ4oRMxNF1nMff3O6ozQUzpLYim6q/i5gHc/hhbGz7qq0MnA38rT7mJwJ/DZnEf5WxjkWJ7VsmCSE9nkUZn4p0A7CqFH6vy8ITxbAncEAju98nToEdT4VQ0QNnwOpi65naz+eQI8QWI1ChUQFudmRVgIu7DtpU3LIDMhDND47/4bWvX+98zKV2QE8/vrf6gBr4eW8ctui9Wbl4MxrpgIzA+QL318MgumEw3N2ERtZRjXA6H3HtJPHaNN7zrwAB3roY9qcO0mw2FlKEIakAN2ELOKtOWAWx8uMEk297TeosVBtzMeM8DuDinBemSlKtQo/g1hzuWSMbaT/aeTIcoWNDWpOtzU0GXsU5MnE492n/DG3JBplUWbzO1B7hi6tN0KQnX9l8MM3R6ZYcFMyyDa1bTX2ty7EHYzMP1aX4vnjYgvc+zcUbMRU2k0Y6IHuD8kh9nNJqr3PwcZBqBHRonYYj4ECYRUDNagNDi6GN9gq1gJubBZyXxV5iphpzeNr7tYanCmeVlE/rfPyIOnO6sv93MZnVaK0PKmxSi9YBvW4CwUkN6mMk+DOwuc/LxxfDDoUNfI2NgSJwUsRQ/2psmcm1GZpMLrXISOTA767NOnZ7wGGjgHFp9J2/G9jH5+V22Pa4t5kqrIYhqQDX0oLb6eTexNgmTXF0YxL5+4udTt4CKk6pY+/n5w+f/86XOfoAmpJgC3JZazj7WP+KNfVCib3Wa3xejoitZXu9jhHB9IZjxT/NKAbGDIKbG/o6i+FUYG+fl/tNhH2GBFi2SSaQ93lim4yriuHxwgwnHWoBK42R7C1Bxzgi3WVh4LWTF7y0IJIX+5NgWtZh0o0NUfJuydWb4JV72zVg8HqqocUXIGqzMkUDrvPP6ewNNuMRNSihRSwKf8+R6xydQlRDJ+bwhPWFgEM6AperBawC3Jws4KwJsItzeLriGJPI4wIGw/A6rPeLGHPHMQveXJDD9+HSoKbNlQF5KPwITA04pENr//rFirUqu2NjX/2Y5rVzLox0E4DfAl4fXGyFM+xgMzqFoFw9BbZrbPf0eX+rXi1gFeC6F+D3DjkkT8QcnKY4Lvhi4Z5vTdtxwKGC6RZaTNP8Qfi+QMrvy9UbMNEmpD864JA36rLubwa9/8kUh4zSMSJwNB1FcEm1MblyrV6lq38EHNICODfs+QbCLBNsBbd26yeePJsTqk4FML8YZk6CUyX7AqEC3ITJigAvm7/V7hjapGWZinmyiCI3ZiIjQotp+paw6xrnvEMXvF+aqzcgYgdkJ0DwxuTS9c6yMZ3fBRzSd7J/zGez5mVbcziotuv3s+uhzGSaPE5wKMyIdAoqOLakYVAqzcJJUNiIbuujWMfEvQ1MLrFCfGiag7AuQasFXIuTOO7+aVmmYqLRWN4zL3Y6eQvBnJiBsIb9/8PHLnjjg1xt/OegtcCwgEMWzILXc+mai8A1EJhH21UrOCml9l63CxhpnyjKsbjPQltUPKggRGfxr9xVg1PhZ5MiFt/A495SfU5TAucBJyX8eS8D75bApBegvVrASp0LsCtO/7SsX2NeK1xc8hP5DANa1JH4zo6V592Qy43fwsb9bhbw5I0pysFA/Dx4huAUjYUvBuSzbo546RaDPN1L8+HpHL32x1IIZlpVklbAw8A3AYdsDrw5BbbJ1fs5GXpLQKlOgcIC2EMFWC3gOhdgoH864mhE/u797U91JL7rYm5k0IAl09bneE8KigUtz9UB2SuHGLSX1yJqQ5IUj2I4BOgVMMoWnxLg8NSQzIY3gXkBhxyRjsU6AioMXJzisM4xeL2OHZwyYgJ0dm2btA44bOYgW8QjjMLqErQKcGaM73LeVoLpHFocxSyOLYy8OaXzKfsJZvc68X4WZ/gJi6bNyuWGnwj7AXsFHPLyKfBLDn+Fx1O8fn5x8nJ3zXXUGJXiQXwyV6/dW4UZk2JQPDedcw6CdwSeSHHYngXwWi6JcDFsHYF/ktpb++rsLUAoTZVaC/CyvFaHVTj508OKo2ucpwopibninFsn4mvM7QMWThvfCBr+ohQD9mO5fP2F8D/g44BDtjF1WLe4MeGF1pwYcMicgTA9l79DnvWGDnJmPOt16xWdzqTkYiBVatgDC+Bfxf4Z2OqNybAL9j7tkuJ7PV8I76ahsGoBqwWcYWuIs+tKZ1NXMBJCKN08E336ua3ObC3GDK6N4Pp4SU8aMH/aTY1gQN4GW/fXj6/DLl/lshUsae4NNlWiMILgrHOjc70c3ynwm9j0mH5suTZN7+VCKI/ZSdpPKQ7dB3h/MvRoQMu3vwsfATulOHRReerldbWAVYCzI8AuprdL5A/lpuDDVKJpkLdOnf/iwhYtywYDbWsV35vwGS7Oy6WtWw5rDHVFvQG5IOCJG90YOs86m51yecAh+00OXmZv8hRDgbHesn6sbgHPNobvEkm9KnNRuuccCj86cBSwIsWhu7nwn0lwWVGWi8gEUQTOJLgSeA/okOLwUmDI6eHqVccPwmoBN1NqbwHDroJhZaRdRDASJJoxE/kHgGuqlx2sjSUMIGJebZFXNrhwVkl5IxmQRwQNyAaebwyd52woNfBUiun7Bc35ARObT3nrgEOeOxHWNIbvMtAuF/8nyFIthv4ZnHcWcDyQymmylYH7e9WTNTwRevaCd4wtEpFqeb1CoLAweFtGLWC1gLMnwEXbDt/EhS4CuEQOKI20+HeA9ft7pCL22sQdB/c0SP8s7vs+/UuHLU859vs3yhpJ7xkUNCAbGNeYEtI7dhk6FjB6nDY1INSqGYwWI1MMro83sq+UKiRpRCYnLYSPDZxAuMnIQS58NQlGp5MKM41J8s7F8JwDX2G911NRKlA4GKbVzRxOUQs4CW3atOotxjiVYrjatCsQjJtMKGNEnitcXLJBjDkrS+Lrusa5+pQFU88ZMXNsRSOyiIKW6cQ0sgH5VFhI8MDTujw42UiTZaKNAz0w4JAPCoPjYXOOVjY/9MqA/l34ImyRybkHwTuuFbxlIQ7P8yY3P0yCMZPg0HQyciUR3YJiOKHY7nPPBs4k3PlWGThmMLxUizFBl6CbqQUcWI7wgc6XbnbZggd/9z3AzeshxsWYyuIKpv8Gp8W7rdyywxJLArrG+UcxgyJRzBnxf8/w/78inD1wwZTXGlNjF8O+BKdp/MBbjmtsT8SjUjMjUPzro4rg0aIcTCpSl0RglAS322ON7TsNgPWT4FnjX0CkVcyGJN2TyfmHwH8mwgGOjbPdOcRb2npW9whgeTG8DEx34D9bwDeHJqneVQytIrBZFHob66OwJzYfe7qe1j+4cNIQ+Lpu5+xKGAF2YfeSRhB5IfBlIXybUoA35OcfeNcuV+xZ2qntXUXvF9XoyK7D9ojZeFpjYHVk0zYt3V9jQGSjaBpmnjn/+S/Gdx56tGA61Up8jbxTEc0fNvTHiUvir+XRLqN2vHD+6IU53nMuamoDMsBAm3pvNtDT55BuPe0A93pzGSWmwmYVNtOZH0tW1MJqauCJxWOu9fR1fAaYC4rhb4UBWxMpRPiHF2DffOucNiCNt3bAiv+5LvCrFds1WBEu9yzaTYH8WO1NqbfzYGg2kqcIVaOoCnCtxtdh0jhW267G+hUEL0Ff/929r4rj7Nliydrpd+502c5JekYnK49VS8Mu7Ls+0uJ94v6GazM6uTjDqv09vf//DowcOH/yEfHiK2Ae3Pmia3K9xcfDVhI8O2u0A7IJsXRushuakfNE4U8EZEoS+PsIqGiM322gLcaRtfzQyTgdVg6CEw1cQ2rnrEALGZuTeStPoPNr+fVXACMGwVH1lLlMBTikBdwYSbkHHMnjQsHsQiRvxp3drjw8oWtsVym+8UK82mnXXsREPQEtNSLji7sO2hQ4KYP4XnHFeT5mIj0KF5Q8Hh9mNLr3yDYP7nzxOMFsmuvWbwSGE+BJ2ZgHZO/6nyM4P/SRDRnHWc9tYVJ4f0dNjtR4rsV3fCTFKDkyGxO7QXYpuxvW2z7WgF95g4G7K2DnQhibzXDHFGFIzWrbRgU40Vaede9SxFwp0F4wb9zV7aqNKfXEmG2rBDReiM3e6yMt3wODizP19EXjV25wWw0RTKt04ntFzL/EMfsOXTjxzNPmT6jmmHF/18v6lpXl/0cwR0SQu3K5kZ+AfBOcGznqwtjG3JEKYRXB+aFNLAuDcmOgBA73RMOPlwtTJ5/I9fv9T2BO0IRrCnTN0mf9VAjnuXavtqSeRWmVwJ150HkQXJtujK9awEqtBBjguu/ueUZwPgXyXHj09m5XX+H1jE5iQEylgFYJ8ZpI2y0FKhzjPm2nLTIs5HJzuYszQYzpd9rCCUcMnTfx8/hrebDLJVv9bedLHxVHPhLMLhjnsou/f2R1Ljfy5jAU2DbgkFeGwpIm0J9SLUOfnm66wkbK8BTt8Hhj/4LetkOQFezE4M/Z/Mwh8HWhzbbVy9jUmHUZ9/8FMLIFbD8Yrm/AvOwqwE3YAs4L+7DdbuQ6EfOuJ6b33tntqsUCWxlAEKyvlUG8hJQuZo81TuvxW85b/u6zXYd1E9cG6Ps4V4lBPhPMFMe4z54+f3yNMIS7u1/SPeJGzokiIxHaABjjTr38uwdzPu+zwGUp2veJptCZCuF/xTZd3/5+c5G11qlmclMdHbwasEF5n+cOTCNPcI736+eA2/GP8z67GG4pzLJQeh6k506BW6JwvAOHig1fqk0JzCg2v/k0B6bUZzSChiE1X/LCHnjDt/e8d1v3a/6JyJFgjMDTBnHEk5AaQgyszWv10YWUxJ6WP51lPDt5474wfBcT59/GyGdE+ddZi5+rtiR37+5Xto6uZ5884x4kwlG4HFD5WRjBwLzyslbn5noDF0OBwEQH3sL+v7VAmQPrBdYIzBkEbzehJZULYjDI8Zxd7NYFaxw7wMVisDjF+z8V/+X4nE9Qkm/r/o5wfcTAgc9NExlUC2HtZOgfg74GthBoaSBPvNAfB37ZYPtBnViqp9q+NAYYI2Am2bCiw4B9jU312j7J234HYgZWurDMgcUC35XC58OCfRjqDBfeMNDaiXMQE4iK9eCe38gmZS8bm8AkGf/LwvkfcGrvSNeguHEFSNIy52/tcW0fR+Qzq6JS7c0GSTihlImT36nl2tL1kRYVr8SM2Txm8jeNGtNRcNrFXcAykCWAawAjtBDYxiBbkOT83ntWOYY/XDH3/i90DqUoiqI0RtJeT/9r92umAidtfKMkF2IxTLnh23sH3tb92kEgxWysleQrqhvnOKba4kuN96zHyNFXz33gQ719iqIoSmMl7VSULpGHiXO4wlQuLlfJp2CQmDxrhViOF7xI8zhnrfhjK7VWNsqyd/7E9xhWusYcpeKrKIqiNDsLWMD8tfu13+DFdNZYerYW8a8d2v7e6We2zXfWli4F2ia1dsXfIq46buP5v3Adt/D6OffP1dumKIqiNDsL2IAgZkINi7fSijUGjBk/YubYCmdd+UliM9HEWbshrOfqscUxxDxUWt5mv+vn3D/33t2vbK23TVEURWns5GXyJheKDeYvEme5VoUWQcwwDsAVOd1U7Qp7ntL2qI1e04CpFOE4i9j73wyBi2787p4ZAHd2v+oct8yU6G1TFEVRGjsZBzUXdb9+Ecj2NZaQDd/cPOeu3kU7FW1JfvlPiORV/6DEZWfiZNn7m8hMV6Topu/ufRXgzt2ubS/lsTuNmC+vm3vPY3rbFEVRlGZpAQOI4UMwttqLVNnCRnjWnrliiEAexrN2pcr2rW45x1nEIsvA3C2u+4pjaHv7LtecJo4c7pa5AwXz4Q1z77ngOr1nSuZEgF2Abbz/r8TGki7TplEUJWcE+NpuRV1blrOkaEFRqY8Af2mE0yr3cj0BjQmx5wFcI2dUym21Y7y8LybOFo47ZivgfhNx7nerJB2BZaYick4jTGDwKFVB46uwZajCcgnQK+73mxOE4hCgYxaucTJ2n/6oLJxrHjAz7ve2wA0p3rMem2DjZ2xd1TlkvyjFXthsZCd515TId8A7wJMJ15+MP1G7ohIlST7jJGC/FO8rxyaKWOFd75fe//24i+qJKEqAf2VwvZcD3eN+fx+Y4P2/HXB9Ldoi5tM/jgIOTfHeKDZRxSpgrtd3spku8lxvspbq83/zPv9LbJKPVOQDfw1x3BqgFFjkPRPfULtiFHlAf2xZ0N28saM9sBxbuXEGNlnQf0lvnL3BG4vC8AzJ88UP9p7RTHkNCBsZk4/N1HcksDc2Yc5m3rP1M7as6svAv33auw1wTBb61wLgM98l6KLeRW0q3OijQEtjeC9mYh+26NhibmVd4Bu73zjQMVJSKaCeXP7zL3NuP6qo23U9Yo4zOzjmt0qI42S9ple0sEzgqJvn3t0Yk26sB1p5//+Z4HzQibyZIIrdvQe9kvfS6PipOmR3slNU/AmqF53YhvRzXK/0xOIe4IdaXo8B7gCu8izeMHyArWQ02+f1V4HjanFNZ3sDUTyPEVw9yU+8pnuTvGSpPR/0JnGVfAQckOZnbAMspHrmocO9yQpAJ1JkNktBBTZjVSK3hZi41bAJgE+wmbHGUfvJ+lveIJ3O/XjPu5dTA45rRWblFZcDU7CpP39MU3iHeRP4HUMc/yVwEzAtZBtOAIaEvJabvHubyDjgjFrcqyuA+1McU+BNnm8AdghxziXesc9RvfjHzt4EuLY8A5zt6wVdNKto7e2zbztb4CsR84jj5s2KLouV3tjjxp9u7H7jImN4RhJqARuRcQAxJ29ofDwvJIv5NTW8oJO8Z1HMcQ5upOKrZEZ7bDGDr4BzanmuvwHXpiG+AH/wLNQdc7ydIt61lngCnJ9kMhQ/gO6PrSaUDuclnPc7cjePtfEsvGc98dykAe7H4cCL3k/LLJ+/AzDCmxiGnQBu603SnkqjP+/uWYBTfVaLGiM7Ah97z8QOabTd0177bVVXF5YqDEnumH3b7Y5hLwMfCkTEmG1xzPZiaJ2QOGPd2hblUwHEyNBkiTWSCzHVhLjqPc7Lbl6sX9GcOzXut+kQ9Szcyp/fU1gKf8cuz2bCngkWYKWAXIstlnAscBa2ok9iH3vas/waC6cC9yb8bba3jBZPOuUg86hZ1WksjWMb6AjPEs4mqxL6btA2yckEl+asDa29CVe3EEL6OdAvyWvfehbuC8DrJC+NeaK3opBq1e5r7NZGsp9vcqAv9AU+wy43J6MUWBqwKtHfE+GudXFxoZyw/vrNX2cBB9/Ys+hwV2IXYTgSTEtj4vd0zcv3fXnfupt63NTHhV1sUQbZ6J9VMxwpYf/XE2IDS8C98pY5d05QvQpkRMAMdRzQM+73w4DVAUtn87yOmozdPEGq5E3gRp9jf01xzR8DByf8LR+7D7MjtlLSSOzeYuUE8UHgDaAszfY5PWGC+RZwAjULAzwX10Z3eG16ZRqfs18SAQ8iTML/PyQRz0orqIM3qF7uDbLx4no/ds8w3gr+Q9zvp2GX41eFuIYBwHZxv5d51mUQn3gTm2xzMvBSkr9vjt3L3Bu4FNg37rUzsNsYX2fpGvb2npN4tvCso/2Bi71npZJTsFtIb6U47+fAPkn+3tK71zt4YnhxnFXdErjF6+PJ6ITdF90m7m+uJ7h3ULOOc+XqwV+956CSXsArXh/y67e3ez/JOBtbNjJdjiGuYEEINvj8fXvv+hN9ZeZ5z8rrVC920cG7Zxcn9KUtvIkP2OV/v7Gye8LE6138/X5+Cy3AANf2LDo8Ju5pxpgeAg5xvsyeB9YEgKjjnGbErRLZyperhDqpEAPfI/Lo6nUbxj6w+IENqq8pCRr0E2dzXxDssLMBf+ejxKXNFaR2VEqHCm8G/hN2n/JZT6g3i1s+OtKbsadDr4TfRxNcledd4EBvQE2n/62m/oq0L/d+5mCXnj+Pm2jle+IXb/m96E2KOsZZT2cBD4f4rERr+cUQE6wo9VuwfoX38y12f/TfcRaf8SZcX9fh5//m/Xzj9dsXgePjXv9zCAEmwDJb7P18hHWSit/rP84bv6NJxLQkYfK01pt8+T1D4n3GH4FrgDupcs/p460SnVOP93VNFvqRAYoTJiHiTcpu8lnBWO4J6HisE94j3sTleKoqPJUFjH9uwu8rU42VgQJcRJGzoSdnGIcrcWU3TPXAoTgh/e2X1r+8VUSRU+a6hRif5BvVLWbXhf8Z5FVXmHb7t7fPRGtfKlZcHsY6jVRyaAYCnLg6EGZPMOqzHJeLrMcu0cc7nyR6kpZ5qxfxs/ALvIEl6Fnr7g3GJFjTuUw58DjVl1z3rMfPr8BueRyf0G+zxRSvb3byft8UuyyaOBEf6Fmz8X36ZMJ7wN/t/XtX3N/OAh7yJvKNhYHUjCy4GOu0mArBRkR87a3GfVRXF+krwFf1LtpzPTxmhP4igDFLgR8Rs8Qg4iJbGtjVYNqJMHnszLEV1/QsOtjBaS+4M+36oUGgDCO/GVeWY5zliPlOIrEvSiNls+778r51KEpNEkMKdsjgHInW2jDPgog1oXb6PuH3LZIcMxa7pF65HN/DE4YgZ6rzqR6gMIfkS+K53h4d6vnz52G9Zyv3TTf3Vh3WZfH7dUr4fokCfEMSQU03/Owe7FJ0pRe4A1xHeG/nXCAxPO7pkOIbzyd1fZE1BHh4nyfy221Y+heE0zDytmBGE5P37vm2qEY4ybU9b/kK2BXcCQCO4TQRNgFnzF2zi55UHVEyZG3C75tlKOKnxP1+rPdA3YfdTyxrAu2Un8QKTOQHbwCOD6kZGSDAm2DDNRJFXBphe5TlQN9tn0UBzkvx/XYE9oj7fZXX39NFPAGL7zPHYEN5yhtBP9ghYfWjDH+/lQal2g29ZNfbt8or+2UIho9bd5SbK2N+k3FNj1t3w8R2FTE/tpwT+RDANeYrjJQakcev63HTd3fO+esHqiVKBmyT8PvqDM4xznvo4q3CvsBEb0B8F+tQ9gq1i2VtSPZI+N0v5vqJhMH0RM+SSrbcPjRhwlNKlaNaY2uPn+v58w01Q1ZWZenceUDvFN/viITf3yJccpBkzMRGDVQmI2mHdUya3gj6QWL89gekn4+g/gX4oa+v/wXMQ6He6bhDBIM4TCyiyAW4e9Yto6/ctejDiJh3xYmMHt5n+F5jZ46tQAG7HPV2Gsfv1YzbKnH/MROB/M0Tk5eouf/bGuvlOwC7LPUpdnn6WawjRjq8RfjMXUdRc5k0U7bAxunGM8Pn2FeovjSah3UQKkpybKLz1WSvLcPQl/DJU2YChVnsM22BUSHbo67YB7s3Gz9xXJOlc5+fMDH6MYmobJfwe233Lv+P6tnAdqindiz2Jn5hGIx1Roxn+4TfPyFHSVjSMCGXmcSIuXUoIoj1GNvIfV8XfXl176JjjfDBZus7DfEsEQVaYAP1lWB6YsMX4nk/w3O97c3a/051x5REq2U/7+cW7+dBwi+5bp/G9RRkoX229vrRTVSP0fwNm6UrGVFsMoab4v72Z2z4SPzkYT9qxkum43zVkvDxktmyTjtg9ytvSBCL9STPEFaXY+kdWeq38f2lN3AmcFHCa8lWJRKt79qm5vw5Sd+rD7ZNs8/VdTvUlwCH4+qef+knYrqAmXPvrFv+l/j6PbOKZlzd89brMO5pKsBKmPUUb/AcgHX22CRhEHirFueehY3TPAS7J3wMNp2cnxV1PzaE6c8N2B4TklgAm3jX51cP+1qCUxw+id3Xi8QNcicmiNQFSdouF5Ycx2CzmsXTCpuX1y8W/i8ZrGZkQkds+NqVXj+L5+kQ798tyaqB8azdtj5j9CKS7+1GszG+B7w/2kjGE6mDiW/uCLBrnKGeveyb7eWe2Tc9dHWvW48v6l1UUDSrqBwlRnrZlbahKo90U6E/NeORHaov2yU+SJeTHSeW9+Mskl2wTlnHYhODJM6iz8MG6U8Ncd4nCb9EG1YQtk1zsLnJu44gFmETmsSHyYyME+AO1FwSHptmGy8mfAaodJ6FdFMB3kfNzGC15T/UjPNsGzCGvk7y5CGJtCC9LEvzsTHAvyd5bVkt+lGY1Z2l9TROPE/4cMDFIdphe3KUtAW4iCJnjTEDbaEEM8n/SCOGWy8pRXYge/tejZlfgJ3SOD6xGENTII/qFXqCKMNWMJpYB9fxHTau8SHP0rgCm4Ag3ot2eEgBvh//wg11STk229Gd2FR7YS3JeAE+BLvkPxubaCF+IrKB9FevFniWeENNcN/Cht3URcjUpmkc+wbZ3d+unEA9CTxATU/rShLH2cOoiutNF4eaxV7qaxwfg91/zpQFCb/n7NZf2gK8upc51M6szKf3zb4psCrE3d/cPGsQxREUJTyrsBmF7iQ7VUdS8btnQf6MzZZVSb8GbIM3qFnxpo/3Ey84N2GXidOZ1C2kKjG/wS47X4pNbRrPJOo3q1UQ7yYZ/Hel+pKvYCvtfNxA1+hiQ99GYzNRhWVlkuMdbNx6/NLpTFKXMfyn1y8qx9xDgS5UT7cYluOpvuf7M7ZUYboiHk99OeS+7fWHylj23by+8hE5RtoCLCYy1FgDN1Su5hIKm1LiA6V2/IRdXiJh4PzdWyH4yvvJVvzm1tjlqDAOVRMTBHgzbwBxG6CdHvbEMp6tsKXitvR+b+Vd876ET50Z86yo+IF8mCccicugY3Oo3zxFgrOnZ5H+D+gcN5a9gI0eWFUH1zA2yYRkLdbLeRY2S9SvGZx3SZLJD9j0mvHL6Cd7k6XHA861wpusVIYj5XsWcLrWeCtvAhzPi6QfC75NkslGfY0ziTm2HwAOonHEMSenqHdRwWW9b1txWe/bopf2vH0b1ZOUrKeq6FO6cWhvxr1XSF39JJ7PE967eS2+w34J53ohzQcw/r316dCzpTfzf5VwGZF2TLhWv9zZryYc1zML1/pYwjmP9jnuOG9CEH/s6AwGxfKEc/ye8HvYlIOdEt73YZbu3W0J5z3N57gDsY5B8cdmq4jLWwnn3TlL522VcN6vA6zHtxOOXe9Z/kH0T9JHrkjTah2f8P51VM/AVckAgksWfppwnj/6HDcu4bgDstDOAxLOKdgww7Arspt4E7+90/jMvRI+b3KYxg6/VmIKjhRj2gvm3Qdn31DfQe6KEpYW3oy9sydas71ByM+prSCJxfdpDn6v15II7kjSK9n4MzYuONGajOeJRnKfp1OzEs8QaoaxNUZcbA7m5QniPYFg58yPk0yS78OGSKVa8WyHzTk9NOHvd1DTKaqvJzAfUzPELw+bSzq+olB5PT9T06iZgnMY1jluuxTv3Ru7XH0Odll/j7q6yLSWoI1hoIjBGJmIouQuFyXMojt4g1CRt7LwMXZpOuKtLJyV5KEMK0JHhbBKqs1jST83bzxXY/f24rMiPemteoRNWPIEtoZwMtaReS3bDsCgNN8zk5pl/tLhr9gl13gReMQbQL9t5P14CTYcLt4ZcFdsSFZQbefhXr+OF8DrsGF493irOPGxsV28/nAVVVsclUymZnxzW89KroxT/sj7+dibHByaZGVoPP7OY4l4fkahWYv1m0hkqCf68dsrR2LzZ4/zJqLfYxOmdPS+y8leO1Vaylt4ItydzLOK1Z7hfZ7Iv3jXO1ZcvOsd5Zf1LtocJQy6BN0wS9ARbEKNxOXJsD/PB5z71QzPWfmTzGM57BJ0Jbtj933j3/Me4ZfXDNbBLdn1pZPDvVMt20I8sUgk7BJ0JV2x+77x75nprYRkSkMvQcczJkm7pVr12AqbAcqv3Zdj449XBxzzEsmriJ1EzWXuoJ9fCA4FGlfLPhTknd3dez3Tc5fjX3c5kbpbgm5RtvJIwbR3MW8/MKtohWqrksPEsIkYDvBmr2ERb7D7U45/vy89iyaeQ5L8Leh7jg2wjhsb86iZKWpvajoSNVYux1akImHVI2gpdRnwB+9+JnMk3MKbuCTbwy3HetifTPLkLi95FnMYp7MlWI/qHxuo7b7FOmNNy+C9C7CJe16oq4sLLcBiZJCtSpiWi72iNCSfYpeI+2Njfuf4HLcGm3/2IKynaWPI+PMQNTOE3ULNbEx+PENNb/P/Ej6mONd4jpox45d6A2hjZ71nhZUnCOjzKVY9yrA5pPfCLmOn8gBeh3U86ha3CuHHVGxegxux3uiJ/IT1wN6d+s/JnchK4ARsXPQHpI5s+Ml7lnoB79TlhZkwBw3v80R+fvnKpQba5rsFWz8w63K1gMPRJa6Na5sJ60fCx9GdRfUYvocIn9w8kW2xuWgr+SaN2WS+9wBWspaG35dr77XNlt49WY5djg0bLrcntaszuzrJgNQjwZr5L+Gya21BzaIdv3gWchi2o3qs6WrSS9/Ywpu01IbZ1HTw2cl7dir5mnBZmCor9sSzApvFKl128c4Xfw3ZCI9zPCGIF72wsct7UbPm82eED7tq43327tg9z3aeOP3inWd6Lb7jZnFj1q9pWry7Urs80xtIL3FHR2xyjp7e/zf1Vgx+8s7zKZmFH25F9dWzb0mRDS2UAF+w213HGMzrwBuPfXXNsaqriqIoilL72VgIIoOw6xG6/KwoiqIo9SHAw/s8kQ9yomAqyt38l7XJFEVRFKUeBNhUrPqjGLM58M5TuverKIqiKFkhZSIOA6cKIMZM1uZSFEVRlHqwgAcNKo64mBMFUxGNRaZqcymKoihKPQjwJnPmHlAm0Y5RYrr8rCiKoihZJHAJegOxkyIiOOKo97OiKIqi1JcAl7vREyPGiRaUm1e0qRRFURSlHgT4qN7X7FEu0a4RnH9OmXv7cm0qRVEURakHAa6QipNjOETEUecrRVEURakvAS5zoydFjCNOfsGr2kyKoiiKUg8CvGeP8zuXE90jIs4nn3z54GJtJkVRFEWpBwGOubFTxLg4RF7SJlIURVGUehLgcqInOQL5JqoCrCiKoih1QI1yhN26De/gULHUwNzZc5/upU2kKIqiKNmnRiasiImeCEQEo97PiqIoilJfAiwiJwG4GC09qCiKoih1RLUl6N69R7aJVWz4FVgxZ+7T2wGiTaQoiqIodWwBR6MbjgZaCuYlFV9FURRFqScBNq5dfnbEfUmbRlEURVHqQYD79Bmej3GOBVY5Bes+0KZRFEVRlHoQ4HWrooeCtEfk1VmzSsq1aRRFURSlHgTYGLv8LI55SZtFURRFUepHgI0YTgB+abMm/3VtFkVRFEWpW/IAunU7dx9wtxbDkJlLxq7XZlEURVGUehBgY2Rr4zqHzZn71L+1SRRFURRFURRFUZQmyf8D5FHXaH0kH88AAAAldEVYdGRhdGU6Y3JlYXRlADIwMjQtMDMtMDJUMDg6NDY6MjIrMDA6MDBGtZDEAAAAJXRFWHRkYXRlOm1vZGlmeQAyMDI0LTAzLTAyVDA4OjQ2OjIyKzAwOjAwN+goeAAAAABJRU5ErkJggg==;" vertex="1" parent="1">
          <mxGeometry x="89.22999999999999" y="581.12" width="151.53" height="57.76" as="geometry" />
        </mxCell>
        <mxCell id="hxm4mnNIkU-bXcJakGqi-7" value="&lt;b&gt;&lt;font style=&quot;font-size: 14px;&quot;&gt;FRONTEND&lt;/font&gt;&lt;/b&gt;" style="text;html=1;align=center;verticalAlign=middle;resizable=0;points=[];autosize=1;strokeColor=none;fillColor=none;" vertex="1" parent="1">
          <mxGeometry x="115" y="360" width="100" height="30" as="geometry" />
        </mxCell>
        <mxCell id="hxm4mnNIkU-bXcJakGqi-10" value="&lt;b&gt;&lt;font style=&quot;font-size: 14px;&quot;&gt;BACKEND&lt;/font&gt;&lt;/b&gt;" style="text;html=1;align=center;verticalAlign=middle;resizable=0;points=[];autosize=1;strokeColor=none;fillColor=none;" vertex="1" parent="1">
          <mxGeometry x="590" y="360" width="90" height="30" as="geometry" />
        </mxCell>
        <mxCell id="hxm4mnNIkU-bXcJakGqi-11" value="" style="shape=image;verticalLabelPosition=bottom;labelBackgroundColor=default;verticalAlign=top;aspect=fixed;imageAspect=0;image=data:image/png,iVBORw0KGgoAAAANSUhEUgAABLAAAAERCAYAAABrWV4jAAAAAXNSR0IArs4c6QAAIABJREFUeF7snQmYW3W5/7/vSWbp3klm2tImadkuKterXvDq3+uCuwIKKAVku+1kWnZZKu7AoOCCAiKyTSfTQtmkKghuKArK5gJcvYKKsrSTTLeZZNppaTuTyXn/PdMCpZ12cpJzTs5Jvud5fPSx7+9dPu9vsnzzWwR8SMABAvFkdiOAiQ64ctLFVelUdJGTDumLBEiABEiABEiABEiABEiABEiABEjAewLifUhGrEYCFLCqsausiQRIgARIgARIgARIgARIgARIgAT8QYAClj/6EPgsKGAFvoUsgARIgARIgARIgARIgARIgARIgAR8S4AClm9bE6zEKGAFq1/MlgRIgARIgARIgARIgARIgARIgASCRIACVpC65eNcKWD5uDlMjQRIgARIgARIgARIgARIgARIgAQCToACVsAb6Jf0KWD5pRPMgwRIgARIgARIgARIgARIgARIgASqjwAFrOrraUUqooBVEewMSgIkQAIkQAIkQAIkQAIkQAIkQAI1QYACVk202f0iKWC5z5gRSIAESIAESIAESIAESIAESIAESKBWCVDAqtXOO1w3BSyHgdIdCZAACZAACZAACZAACZAACZAACZDAKwQoYHEyOEKAApYjGOmEBEiABEiABEiABEiABEiABEiABEhgFAIUsDgtHCFAAcsRjHRCAiRAAiRAAiRAAiRAAiRAAiRAAiRAAYtzwC0CFLDcIku/JEACJEACJEACJEACJEACJEACJEACXIHFOeAIAQpYjmCkExIgARIgARIgARIgARIgARIgARIggVEIUMDitHCEAAUsRzDSCQmQAAmQAAmQAAmQAAmQAAmQAAmQAAUszgG3CFDAcoss/ZIACZAACZAACZAACZAACZAACZAACXAFFueAIwQoYDmCkU5IgARIgARIgARIgARIgARIgARIgARGIUABi9PCEQIUsBzBSCckQAIkQAIkQAIkQAIkQAIkQAIkQAIUsDgH3CJAAcstsvRLAiRAAiRAAiRAAiRAAiRAAiRAAiTAFVicA44QoIDlCEY6IQESIAESIAESIAESIAESIAESIAESGIUABSxOC0cIUMByBCOdkAAJkAAJkAAJkAAJkAAJkAAJkAAJUMDiHHCLAAUst8jSLwmQAAmQAAmQAAmQAAmQAAmQAAmQAFdgcQ44QoACliMY6YQESIAESIAESIAESIAESIAESIAESGAUAhSwOC0cIUAByxGMdEICJEACJEACJEACJEACJEACJEACJEABi3PALQIUsNwiS78kQAIkQAIkQAIkQAIkQAIkQAIkQAJcgcU54AgBCliOYKQTEiABEiABEiABEiABEiABEiABEiCBUQhQwOK0cIQABSxHMNIJCZAACZAACZAACZAACZAACZAACZAABSzOAbcIUMByiyz9kgAJkAAJkAAJkAAJkAAJkAAJkAAJcAUW54AjBChgOYKRTkiABEiABEiABEiABEiABEiABEiABEYhQAGL08IRAhSwHMFIJyRAAiRAAiRAAiRAAiRAAiRAAiRAAhSwOAfcIkAByy2y9EsCJEACJEACJEACJEACJEACJEACJMAVWJwDjhCggOUIRjohARIgARIgARIgARIgARIgARIgARIYhQAFLE4LRwhQwHIEI52QAAmQAAmQAAmQAAmQAAmQAAmQAAlQwOIccIsABSy3yNIvCZAACZAACZAACZAACZAACZAACZAAV2BxDjhCgAKWIxjphARIgARIgARIgARIgARIgARIgARIYBQCFLA4LRwhQAHLEYx0QgIkQAIkQAIkQAIkQAIkQAIkQAIkQAGLc8AtAhSw3CJLvyRAAiRAAiRAAiRAAiRAAiRAAiRAAlyBxTngCAEKWI5gpBMSIAESIAESIAESIAESIAESIAESIIFRCFDA4rRwhECste8cgdY74swhJ2rgyUxny0MOuaMbEiABEiABEiABEiABEiABEiABEiCBChGggFUh8AxLAiRAAiRAAl4TiC3ofY+YxgcgmLin2IMY/sa6zmnrAFGv82M8EiABEnCbQMuZ6yY2DoW+utc4JtLpruhVbudC/yRAAiRAAvYIUMCyx4vWJEACJEACJBA4ArFk7mxD8G+q+haoHgKRcXsqQkRuUxPr1UBHJtb0NNrFDFzBTJgESIAEdiEQm5seJ5MnXAHoeACtewOkqutEjLsAfSGdil5NmCRAAiRAAv4gQAHLH31gFiRAAiRAAiTgCoF4a/YCABdAMBNA8e/7ivsVWDk9HDn7yQ7Ju5IcnZIACZCABwQi52QnT9gMS4jaq3C1eyq6BiLfTsciV1PM96BRDEECJEACYxAo/oMsUZIACZAACZAACQSKQLwtuwiKRQD2KSPxpemBSBuWS6EMHxxKAiRAAhUgoLJPa98hYZHzATmxxATWAMZ1gzK0eF3n9LUl+uAwEiABEiABBwhQwHIAIl2QAAmQAAmQgN8IbBevdBEg5YhXL5d1czoVmc9zsfzWZeZDAiSwNwIHz103ccPk8L0CfW+ZpPoUuD6Til5Sph8OJwESIAESKIMABawy4HEoCZAACZAACfiRQDyZ/QygFzgkXo2UKJBbu1ORU/xYL3MiARIggd0IqEp8Qe5OKI5ziM5qAFelU9FvO+SPbkiABEiABGwSoIBlExjNSYAESIAESMDvBOLJ7M8AfNTpPNOpKD83OA2V/kiABFwhEE9m7wBwgrPOdTUgFLGchUpvJEACJFA0AX4QLRoVDUmABEiABEjA/wQSydznFHoegBmOZyu4K90ZPd5xv3RIAiRAAg4TiCez6rDLHe7kvnQq8nF3fNMrCZAACZDA3ghQwOL8IAESIAESIIEqIhBP5u4F9GMulWSmU9GQS77plgRIgAQcIZBoyy5XxbGOONvdSVpEv93d2fxdl/zTLQmQAAmQwB4IVIWAFWvNXSiCd/qsyz3pVOTMYnKKL9jwVpiFLxdj66nNcP6C9M3Tny8mZrwt+32oNBZj652N/jidinZ5F4+RSIAESKCyBGYuXNUcMhvugOIDLmVibm2ITOm9Xja55J9uSYAESKBsAvFk1ro11Sjb0egOTFH8qLsrOtcl/3RLAiRAAiRQzQJWPJm9E4CvtjQI8Gx3Kvq6YmZeItn7MYVxbzG2XtoYpnnIyiUtTxUTM57MbgQwsRhbD22sMwqs6+P5kAAJkEBNEIi39X0Rik8DMt2lghUq16e7Ime75J9uSYAESKBsAi4LWNa1FvekU5Fjyk6UDkiABEiABGwRqIoVWBSwbPW8aGMKWEWjoiEJkAAJ+ILAjm0zn3Bx5YFVZy6dikZ9UTCTIAESIIFRCFDA4rQgARIggeokQAHLpb5yBZZLYO255Qose7xoTQIkEHAC8WTubkCPdrmMfDoVrXc5Bt2TAAmQQMkEKGCVjI4DSYAESMDXBChgudQeClgugbXnlgKWPV60JgESCDgBClgBbyDTJwEScIQABSxHMNIJCZAACfiOAAUsl1pCAcslsPbcUsCyx4vWJEACASdAASvgDWT6JEACjhCggOUIRjohARIgAd8RoIDlUksoYLkE1p5bClj2eNGaBEgg4AQoYAW8gUyfBEjAEQIUsBzBSCckQAIk4DsCFLBcagkFLJfA2nNLAcseL1qTAAkEnAAFrIA3kOmTAAk4QoACliMY6YQESIAEfEeAApZLLaGA5RJYe24pYNnjRWsSIIGAE6CAFfAGMn0SIAFHCFDAcgQjnZAACZCA7whQwHKpJRSwXAJrzy0FLHu8aE0CJBBwAhSwAt5Apk8CJOAIAQpYjmCkExIgARLwHQEKWC61hAKWS2DtuaWAZY8XrUmABAJOgAJWwBvI9EmABBwhQAHLEYx0QgIkQAK+I0ABy6WWUMByCaw9txSw7PGiNQmQQMAJUMAKeAOZPgmQgCMEKGA5gpFOSIAESMB3BChgudQSClgugbXnlgKWPV60JgESCDgBClgBbyDTJwEScIQABSxHMNIJCZAACfiOAAUsl1pCAcslsPbcUsCyx4vWJEACASdAASvgDWT6JEACjhCggOUIRjohARIgAd8RoIDlUksoYLkE1p5bClj2eNGaBEgg4AQoYAW8gUyfBEjAEQIUsBzBSCckQAIk4DsCFLBcagkFLJfA2nNLAcseL1qTAAkEnAAFrIA3kOmTAAk4QoACliMY6YQESIAEfEeAApZLLaGA5RJYe24pYNnj9Yp1fEH2Apg4RmBe0Z1qua9ENxxGAiTgMQEKWB4DZzgSIAFfEqCA5cu2MCkSIAESKJsABayyEY7ugAKWS2DtuaWAZY/XK9ax1uwlIrgYqoMi8oXuVPSaEl1xGAmQgIcEKGB5CJuhSIAEfEuAApZvW8PESIAESKAsAhSwysK358EUsFwCa88tBSx7vEasE619n1eRrwCo2zE8D9XHTOilPV0tD5bgkkNIgAQ8IkAByyPQDEMCJOBrAhSwfN0eJkcCJEACJROggFUyur0PpIDlElh7bilg2eOFWDJ7rgCXA5jw2qFiAlqA6LnpzuYbbLqlOQmQgEcEKGB5BJphSIAEfE2AApav28PkSIAESKBkAhSwSkZHAWtnAvFkdiOAiS7hLNUtBSyb5BJtuc+r6tf3MswUkTO6OyMdNl3TnARIwAMCFLA8gMwQJEACvidAAcv3LWKCJEACJFASAQpYJWEbexBXYI3NyAMLClg2IMeSuc8K9JtFDnlRYJ7LA96LpEUzEvCIAAUsj0AzDAmQgK8JUMDydXuYHAmQAAmUTIACVsno9j6QApZLYO25pYBVJK/ZyWybCXwLwNQih1hmCsNoTc+aegvarS2GfEiABCpNgAJWpTvA+CRAAn4gQAHLD11gDiRAAiTgPAEKWM4zHfFIAcslsPbcUsAqhtdcDcUm9y+ysfrqtV5V56c3RpdhuRSKCUcbEiAB9whQwHKPLT2TAAkEhwAFrOD0ipmSAAmQgB0CFLDs0LJhSwHLBiz3TClgFcE2kcyeq8B3ijDdo4lA53XHo7ehXYbL8cOxJEAC5RGggFUeP44mARKoDgIUsKqjj6yCBEiABHYlQAHLpTlBAcslsPbcUsAag9cB52jD0ObsBQr5mj20u1uLGP/TYky948kOyZfri+NJgARKI0ABqzRuHEUCJFBdBChgVVc/WQ0JkAAJvEyAApZLc4EClktg7bmlgDUGr3hr31kQ+Z49rHu2FhinThqY+v1nlsuQUz7phwRIoHgCFLCKZ0VLEiCB6iVAAat6e8vKSIAEapsABSyX+k8ByyWw9txSwNoLr+mnrJlQ3xA+DyqX2cO6d2uBnlo/vv+u5649cNBJv/RFAiQwNgEKWGMzogUJkED1E6CAVf09ZoUkQAK1SYAClkt9p4DlElh7bilg7YVXvLX3dIhxgz2kxVmr6CmN46LLn7tWKGIVh4xWJOAIAQpYjmCkExIggYAToIAV8AYyfRIgARLYAwEKWC5NDQpYLoG155YC1h54tZy5bmLjVuPTELncHtLirVXklPBw0w9WLJWtxY+iJQmQQDkEKGCVQ49jSYAEqoUABaxq6STrIAESIIHXEqCA5dKMoIDlElh7bilg7YFXrDW7QAQd9nDatxaRU8wNL/0wszy+xf5ojiABErBLgAKWXWK0JwESqEYCFLCqsausiQRIgAQAClguzQIKWC6BteeWAtYovObMe7GxEJp8BoCr7OEs0VpwQsO4yD3cTlgiPw4jARsEKGDZgEVTEiCBqiVAAatqW8vCSIAEapwABSyXJgAFLJfA2nNLAWsUXrMXZN9hmvgGgHfZw1my9Wqo+fF0V8sTJXvgQBIggaIIUMAqChONSIAEqpwABawqbzDLIwESqFkCFLBcaj0FLJfA2nNLAWsUXvG27HwouuyhLM9aoPOGQ0PLV3XM3FyeJ44mARLYGwEKWJwfJEACJABQwOIsIAESIIHqJEABy6W+UsByCaw9txSwduE1Z17/1EKocDYgX7WHsnzr7SJWdPmqDqGIVT5OeiCBUQlQwOLEIAESIAEKWJwDJEACJFCtBChgudRZClgugbXnlgLWLrwSyexcKDpVMNkeSmesVfUTjRP6f/bctQcOOuORXkiABHYmQAGL84EESIAEKGBxDpAACZBAtRKggOVSZylguQTWnlsKWLsKWK19p6rIzfYwOmgt+JMOF07KLJ32Lwe90hUJkMAOAhSwOBVIgARIgAIW5wAJkAAJVCuBqhCwEm3ZdlV5n7+aZKbTqeaTislp+6HaYh2q7avHNAptPYtb/llMUvFk9n5AxhVj65WNwrwrk2r+nlfxfB+nXY14OjcPQKqSuaqiLZ/P37l22YyXKpkHY5NANRKggFWNXWVNJEACdgnwDCy7xGhPAiRAAsEgUBUCVjBQM0sSqCyBfU7JJcL1uBDQsyubCWDA+M+Vqal/BkQrnQvjk0A1EaCAVU3dZC0kQAKlEqCAVSo5jiMBEiABfxOggOXv/jA7EnCMQCzZe6LAuM0xh2U4EsX54xBJPdslG8tww6EkQAK7EKCAxSlBAiRAAtxCyDlAAiRAAtVKgAJWtXaWdZHALgT8JGBZqYnieMMcuHfF0n23slkkQALOEKCA5QxHeiEBEgg2Aa7ACnb/mD0JkAAJ7IkABSzODRKoCQIqsbbsSaKyzEfl/i0M4/AXU00rfZQTUyGBQBOggBXo9jF5EiABhwhQwHIIJN2QAAmQgM8IUMDyWUOYDgm4QWDm/Gw8HNILVeUcN/yX7FNwQmh44MdchVUyQQ4kgdcQoIDFCUECJEAC3ELIOUACJEAC1UqAAla1dpZ1kcBOBOJt2eOhuNOHUP5WMPGRVUuiaR/mxpRIIHAEKGAFrmVMmARIwAUCXIHlAlS6JAESIAEfEKCA5YMmMAUScJuAjwUshEL6+hUd0Wd5I6Hbs4D+a4EABaxa6DJrJAESGIsABayxCPHfSYAESCCYBChgBbNvzJoEbBHws4AF1S9tgV7b19XCGwltdZXGJLA7AQpYnBUkQAIkwC2EnAMkQAIkUK0EKGBVa2dZFwnsRMDXAhaAUMHYd8XSphVsGgmQQHkEKGCVx4+jSYAEqoMAV2BVRx9ZBQmQAAnsSkAAlXgyN99vaEyj8FTP4ml/LiavWFv/YaLmfsXYemWjig2ZrugPi4lnHbAdMvDBYmy9tDHzdT/uuWVytpiYiWTfKQqpK8bWKxuFPp1JNf+xmHizF2TfYZp4XTG2ntmIbEl3Ru5wIp7fBSwoFg3l8zetXTbjJSfqpQ8SqFUCFLBqtfOsmwRIYGcCFLA4H0iABEigOgkI2tWIp3MF35WnuDjdFf1qMXnFk1nrcOrji7H1ykaAZ7tT0aIEkUSy92MK416vcis2jmGah6xc0vJUMfbxZNba/jWxGFsPba5Kp6KLiokXb8vdANXTi7H1ykYU67q7otPLjjdXQ7Mmrz/RgHlL2b5ccyBDpuj+PZ3RjGsh6JgEaoAABawaaDJLJAESGJMABawxEdGABEiABAJJgAKWS22jgOUSWHtuKWAB2DfZP3sYhc8CcqY9fN5aF0wkeBuht8wZrfoIUMCqvp6yIhIgAfsEKGDZZ8YRJEACJBAEAhSwXOoSBSyXwNpzSwELQKw191HD0KWqmGYPn8fWghMaxuXuee7aAwc9jsxwNUpgVmv2/wn0UBhw8jzIXEGHHl6dmrmyElgpYFWC+qsx58zrn2OG9UMmzEYnMhEYeSkU0oXxDY/3XFfcln4n4tKHfwjETu+bpfnQ+0QxFUah/NcqU15SDD/Rk5j2V7SL6Z9Knc2EApazPEv1NnPhquaQWf/fCszek4+QGs+HQnjkhY7IhlLj1MK42Pk6Tjb0HaxivBmi4x2pWWGGVJ7MhyN/WdUhmx3xWUNOEq3r3gkj/Ia9vec3bpGlz90WHfAjljnztBF1619XMM3/VFHHdlIZBX3BUH1ixZyWdW68z1DAcmk2UcByCaw9txSwACTmZ49VA8vtofPeWkSeHDbCH1nVMbnP++iMWO0EEm3ZDwL6elUJvVKr4HCovN86C9LB+tcCcg+gz77sU0V6DTP/WHfX9BccjDOqKwpYbhN+1X9iQfZgVT0MKvUv/78C8w0qxolQOPPlAsgDeFYEP1fF6p3m7qqhcP7BtTfOWOddxYzkNoHYwtwbpYB3Adrwaq91f1UcJ5AWh+IPQPXXMORRKEYELFGownhhWnjqz5/sEGvOBf6hgFXZFu7btnZ63qz7gGHom0zgY6J7OWdW8VeI3Asx/1Qwhh5d1TGz5j8HTj9lzYT6hvr/hOqhr3RSMXHbe8HbALxbgUnOdFgKEH1QFQ8LsNNt4MaThdDUJyhqjU45nuw7WlTmQOTjqubbITJuj/0QfBWK/qGhSMfaZVKxs35nLlw1vk4b3myaI3No+yMyHopDAT0MwFRn5tSIl6cV+muBZgDjlaOqROVPw+GtT63qmFmWWEoBy8FO7eyKApZLYO25pYAVIAFrpLVqzkp3tayy12Zak8DuBOIL1+8P0/yImoURIUHEOBbAIdallxXgtRqKXyjMv4/kEgo/W5AtD5T7Bj5aHRSw3OvunHn9U82QHm9qYfJIH43QoVAc9Rqxwb3wr/GswEoR3K2mOfJ6GZLQ31bGm37uxi+dHpVUk2FmL+zdRwuhj788pwwx3qbAEQAcWcFnA6puO0v27zD1dhUdMsQYMsX4S6az6SEbPnxlSgGrcu3YJ7lqdggN5wswF8BMG5n8DcAvIHJPujPysI1xVWCqEpvXewAMOXr7+4sxCaa+GyLvqUxx8juBPmSquWkkvujdmYGWF7Fc/HdutseAYq3ZT8LQy0TlIItM8eH1Mi0M35V5afrfvOI4u239vgUzb33+hSHGRBP4bwHeX3zOzloK5EGI/s40zREhL9w4btmK6ydYP/xa70FFPxSwikZlz5AClj1eLllTwKKA5dLUols/EpjZ2nuQIaEPGjAnqRivg+onAUzwYa5PA/JjgfkSDOOvRn7DAyuW7rvViTwpYDlB8VUfseSGiIHCXMCMKCQCoM3hXykdSViAP6voD0Rhmmr8OZNoup9iliNoHXeyz8JcImyaR1hbAhWIAXISgCmOByrLoQwC+ieB/gwwTDX0z+nF0fvLcunxYApYHgO3zlxtWzu9gLqj1NT/giBZegbyEDB8STo17Xel+wjCSJXZbRvmqA6fABiAtYIXcrIfM1foMgH+KUDBqAvdsWLG1O6ae49RlURb7liFXgbIv5XSJwF+CMVdLeEX736y41BXVrta7zF1BdN6X4Fuz3NeKbl6M0avFxgZWIuB68M3dt8wtb+YuBSwiqFUgg0FrBKgOT+EAlbABCwe5O78H0EteIy1ZpNi/cpryOtV9UhxbGm9+/QU+LOI/AymbhXRx7pTzb8uJyoFrHLovTo23padDxMxFUQFsL5QRJ3x7ImXJ1TxE4hsERl+PN05rcZWMnjC2HaQRLL/f1TNBARzABwDoMm2k8oMUCie2LaC9T4xjJX5wc0PrV42q7syqRQflQJW8aycsLTOapO88UUAxwHaXL5PS8SSS9KppqoTsWYvfGmfQmHwFBFtgKkHQOTU8nl56uFmVbwogLkF5nf6ulp22nroaR6eBou3ZY8XxaUKWCuvynn+bgpae2KRPzolAs46ayAqW/PHiGKfHe8xreUkWJGxiu8AyDUM4pqxzgyjgOVShyhguQTWnlsKWAETsLb9Cn310FD+orXLZlRsj7i9KUbrShGwfukdRugTaup0EVkAiJ1tCpVKe6y4j6qaD6ghv+vpjD5od0m15ZwC1liI9/zvB5zzr4bBzZGTLJFBxLBWD8RK9+aHkTKoMB+D6u8MkYfLFUf9UFHQcjhg/uqWIQkfYwIzRYz51lty0GrYOd+RrauK31j/bUAf7e5qfsCv9VDA8qYzMxcONIfNwolQ8426fYWqc48gte2QtvaezmjGOaeV8zRn3qYZw8aW0yHGTIElWu101l3l0iovshhXqjm8qXFw/VXP3XagLw8qL6/A7aMTrdnjTAOX7vUsNxuBBPipUYgcu2KplLX6fvtZc8YZIqEoRD8JS8AK/nO1qjmQzxe+tafvgxSwXGoyBSyXwNpzSwEreAKWDg3lZ6xdxoOJ7U312rGOnbbhQGN4+HAAB1vnD6n4/HbN0lrzKCAPCcwHuwd+8xCWH1f0mRMUsOwDb27VSY3InWAYOFAVnwq+cLU7A1U8JoLfmKIP9nQ2/8Y+JY6wQ8A6g08L5kcF+u8APg5UxZeK12hZInhcFb8RhB7qTk0ta+WoHbbF2lLAKpZU6XZz5q2bUQgblwDG8VB1YUWhvKBiXpLpbL619CwrP3L/0zdOG8oPnSPADMdFvsqXN5KBqn5XBBulPnxlsdvAfJL6mGlYt7lvWy33dQBvGtPYhoFArmgJvfDlUrYSWsJxqJA/V4HpAiywETZIplebjXWX91w3KbfrD7oUsFxqIwUsl8Dac0sBK3gCFobq8tN5s5a9iV4L1rNOzUSN8Pi52w5/fB8A6z9B2tJVYovkUVF9zAwZP80sbvptMU4oYBVDaYdNu4bjmdwpMPUQiBxVjcLVKDQeUZFHALk/yAd02+iyp6Yz5m9sqTfyn1DoewHrtcqxmwM9rcNOMEsc3Vbr70KKX61c4h9xlAKWnS7as02csb5JhwrWKtXXA3B5q1Jwz8OadepAVOqHPyOmtpR3Jpi9/lTUWvRGVWyYHopeVDU3mrZmOyE4BcArNw47xbgQGpxg50If62/PzJufhap1vEG1Clev4FVBB2A+Od1YuWRnoY8CllMzcBc/FLBcAmvPLQUsClj2ZgytfUkg3to3T0T+W6GHV8lWQZuc5XdQ60Bluae7K/LI3gZTwCoObaK171Q15C3bbxHEvsWNqiqrhwH5AyD3VeMZMxXolMTacieJWsIVPlQjYuiun3wfAfTHgPwinYo8XYEevCYkBSx3OjBz4armcKHha7r9hsGp7kR5jVdToV9RVUlFAAAgAElEQVTMpJq/6UEsR0JYN9YWQvqlkVVpZR1m70g6FXEiwDUKyadTkQsrkoBDQWfOz8ZDgsUQfNghl69xo8A1mYHIorFuJTzgpOzkwUa5SKBTtAaEq11Yp1X0tunGiotfFrEoYLkxG7ffqflsdyr6umLcJ5K9H1MY9xZj66WNYZqHrFzS8lQxMePJrHWA38RibD20oYBVZQJWfF7fWxESa4uPo49Ae9XAA6H8xr86dRucownWqLNEsv8UhfkWQD8OyP41imGnsuUhEdyPgt7bvSRqXTe+20MBa++zxLr+2gDepgLrqvIDOafwu20Hvi6Fad6f7mpZRR72CcSSuRNF9K1QWFubS7qZyn5U347IAvqYGqEri1016lYlFLCcJXtQa++kLSJnq8qBEFjnuXn2CPSL3almawuXr5+D52r9wKS+j4gYH6vWrYIlNOBqiPalO5u/VsLYig+Jt2UXQXEBrIuCXHqmhSL1e1qtNmfei42F8JT5qvqWWlhxtWfEMgiV49KpqfdBRClguTQZKWC5BNaeWwpYARawEsm+L0Csc0Osq4W3P2rq6yH4gL1pUJT1eog+ATWeF8HQK/HU/EdYGn/4YufEtUV5oZEjBA44RxsGN+dOgurnIUKR4bVU+1X10ZDK11cuiT62K3AKWHuagiqJ5PqTVc0LIXgDgJAjk7UqnMjzEPxRFNd1pyKPVkVJHhQxcnaakTsOwGecOtjXg7S9CvGIiP6vwlie7oxU5BZMCljOtXq/hbkp+YJeBeATHq262iV5ucc0hi/tWTztz85V5ayn6aesmVDfEP62Kt4mkLc46z3w3jZsu2MmlY5feyHa27edyx+cJ9GWu1VVT3Iz4z0JWLG56XEyefzVAI6ozVW9u1F/Ih2P/D+0yzAFLJdmJAUsl8Dac0sBy7qVrDX7IQhSAXrxWwrIFkCP33HNuNhru6PWaQDWgdr9lldR+f1gfuoP1y4T3pLoKOZXnY2sutLh90AMayvOfi6FCb5b1d9CxNoG9v2dt+tQwNq9tdbtQQp9N0Q+yBUye536vxPI7Wad+ZPMjc09wf8jca+CeFvuU1D9MCDvApSvU3tG/TBEvlQJEYsCVvnzf+bCVeNDhcYvbvsMGYfqqeV7LNnDeoF8vjsVualkD24NtM5STPcdCzWsz9qerkxzqyRX/IoMA2YngFy6s/lLrsRwwWklBKxDFmrdukLuG4BOBcTlM+ZcgOaqS7kpnWo6gwKWS5ApYLkE1p5bCliWanV63yzJi7X81foPn/II/FMhfzCgW0Vx/8pE5G60S6B+TSqvfHdH79gy+GWKDMVxFmCjdYCyql6SWdL8B2sUBazXsou19Z0sKp/fcdjwq8s5i0Ncg1ayYtuW3adMxbd7uqKP1yCAMUuOJXtPFBjW65R1gDWfsQk8Yt1YaIhx+4rFTZ6toKGANXZj9mYROz89TjaMuxFirbqSih8RotDPZVLNV5RXlbOjdwgNNwJ4OzCyspfP2AQ2QdGZ7oqeP7Zp5S08F7Dmaig+KWeduWWt+nL80PjKEy0/g3Q8EqKAVT7HUT1QwHIJrD23FLAsXu1qxNL9Jwj0Nnv4aL1XAoq/AvqkQh7L5/M/XrtsxjoSK41A7PTNsyS/5TgBTlPgoNK81PAokd9Chy9Ox1sei6f7lwNqne/k5pNPp6K+/mDV3No7qVGM4yFYxO1dpUwF+Z0p+rmezujvSxldjWNi89a8UULhowA5keKV3Q7rZoU8HjJx8Whbn+16K8aeAlYxlHa3OWThE3W9hTmXAcZMhZ5cmhfnR/lOwBoRGrJdEKnkyjTnQXviUQdF5SY0hNq7b5g6ssPBr4+XAlZsft/bxJDTAczzKw9f5CU4gQKWS52ggOUSWHtuKWDt4BVvyx4PxZ328NG6OALyAkT/AujN6Vj0Pq7IKo7ay1bx+blPwcDxED0Uiln2RtP6ZQIKWKtl/ijQjwLi9kHSvhaw4m19R0HlGG7vKvvv4xGopvKa/+maJfv0lu0twA6s91BVLBDImwBtDnAplU79UUNx4UoPVvdRwCqh1XM1lJjSf7OqWrezVnzV1c4V+EnA2mdh7p11BesHN/8IfCV0u8JDdBCQewX4e3cqekmFk9ljeK8ErHWF3OIdx2a8y68sfJTX3yhgudQNClgugbXnlgIWBSx7M6Y86/+DyDOK4VszndN+Vp6r2hhtbe+CKV8SGVl1VcmzzqoFuHU2m7Uyqs7lgnwrYO04m+jz284Gez2gbnNwGbMf3OtzgPG0SOGy7s6WJ/2Qkdc57PgByPqCxS2DDsBXwWNqml/uSTQ/bB3G64DLUV1QwLJHNt7WezXUmAHgBHsjPbF+GqJfTnc2/9iTaHsJEk/2LVXIQbJ92yCf8ggoAOtimlszXc3nlufKndFeCFjAyAID69xffg4uso0UsIoEZdeMApZdYq7YU8CigOXKxNqbUxH5swl8KdPZ9HPr2HfPEwhIwFhr7iQRvZjnXQWkYa9N05cCliVeiZqXWF8uAknVv0lbr2OPiZjn1pqINbLyytR2EXmdf9sTyMyeAHTJUF3DD9beOMmV7fcUsIqfF/Fk9k4IjoD6a9XVKxUovmOOq7us57rJ2eKrct4y3pq9HQLr5lHeYuss3pdEtau7q/nTzrot35tHAlb5idaYBwpYLjWcApZLYO25pYD1soA1chOh3AToHHsIaV0igf8D9Dmo3JTuiv6yRB9VOyzW2nuSiEHxKrgd9p2AFU/mrHP+2nmGmnuTylo5E1Lj7JWppv91L4p/PFu3V5rQSyleudaTFQB+EKozrltxY5P1vx19KGCNjTPe1neDqLQorIPa/bv6Q6Bf7E41f33sityziLflboeO3I7Ny0DcwbxJRJZ0d0Z8JWJRwHKn2eV6pYBVLsE9jKeA5RJYe24pYO3gNevUgajU5c8S4FJ7CGldHgH5C1Q/m+6K/IqrsbaTjCVzJwrMdkAOLI8tR1eQgK8ELEu8AsxLPTj7q4LIfRP696ZhnNHj4W1y3leuEm/LHSeql3I1n+v0+yBG2zRj6s+e7JC8k9EoYO2d5siqK+BjAMY7yd0NX5UWsHawOpYrr9zo7mt8btr2Q/vSdKr5HNcjFRmAAlaRoDw2o4DlEnAKWC6BteeWAtZOvHZc/c2bCO3NobKtVbEw0xW1Dmes+WeHeGUJDQfUPIxgA/CNgDUiXqn5FQgFUQ+n1B9NNRb2dDX9xcOY3oRqVyOe7j8OUOvHHrcvQ/CmJv9H+QuM8IL04il/cjJVClij07RWXSmMmAAfgWrYSeZu+BLorRoKt6c7pj7vhv+xfMaT2bsgckwQWI1VSxD+XYCNqnpLuqv5bD/kSwHLD13YPQcKWC71hQKWS2DtuaWARQHL3oxx2FqAvApOS3dGlzjsOnDudohXXwFk/8Alz4R3JeALAWv74dp6GQXRSkxQfUJDRmumI/LXSkR3J+b2lVecU+7Q3btXedIIGQtXdkx9yqnoFLB2JxlP5u4EzCMBmeAUZ5f9PGyqeUlPV8uDLscZ1X2sNbtcBEcD8L3QVwk+bsUcEbEgy9KpprMrvXuBApZbXS7dr6WxUMAqnd9eR1LAcgmsPbcUsHbiNWdB/5tNUy9T6BH2MNK6DAJXG6HGb63smLC6DB+BHxqf3/sphEJfhSrFq8B3c6SAigtYiQXZ49SUywHlar6KzSmxbiWcl05Fnq5YCg4GnjU/e6xh6NcpiDoI1Y4rxYedPDOSAtar8OOt2S4IYoC8B1DrptogPHlAvz00NHz52mUzrBt2PX12iFdHeXCrr6d1BSXYdhFLl6VTzWdVMmcKWJWkP3psNfXtFLBc6gsFLJfA2nNLAWtnAWueNg4b2QUi8l17GGldIgEVyBndqchNJY6vimHbzyeCJTTsVxUFsYiKC1iJZHauAt8AwDlV4fmokP81TD25e0n0bxVOpazwsdbsJ0X0m1whWhbGMgfrj02j/rM9iyf/s0xHI8MpYG2nGE/m7gD040E462qnvmegWDIcls7VHZFuJ+aDHR+JZPYHCljM6uyMo62zBBTYKCMrsSIVE7EoYDnbUye8peOREAUsJ0iO4oMClktg7bmlgLULr0Rr36kqcrM9jLQukcDVoULhihVLp60pcXzgh41s8TLxDQh4+2Xgu/maAiq2AmuHePVNAPtWF9IgVyN/CYXCJ6zomPyPIFYRa+v7hKjxLYrsle6eblYzdHhmSdNvncik1gWsHauuDgD0vwBpcIKpNz70dhG9aqjQ2L1myaReb2K+GiWezP4QwJEAgrJSzWtEnsZ7dTthZUQsClietnvMYKo4NtMV+REFrDFRlWZAAas0bg6PooC1C9B4MvfvquYlImLdpsLHRQIKPSeTav6eiyF87dra4mWauEKA2b5OlMmVQqAiAtb2VTLy7W23FFEQLaVrLo5R4C8Ih+dmbpryLxfDOO461tp3jECuosjuONqSHAr0A92p5l+XNHi3zzvZAgDDCV+j+5B70qnIMe75L91zvDV7O2RkBVFQzrqyit0sglvzhlxeiVVXVgKxtr5bReWTABpLp8+RThPYIWLdmk5FznTa91j+KGCNRcjbfx8ayk+0thRTwHKJOwUsl8Dac0sBaxdeB8/V+oEp2QVQqVlhxd4UKtFajCvrw+Ernr9x0roSPQR6WHx+31Ew5Are4hXoNu4tec8FrESy7/0KsbYNHlq1VINdmIrKFw1TblyxtGl9EEqJJ/uOVsh3KLL7p1sUsMrrRSyZXSzAGyH4DyjGlefN09HLjVDoG+Zwfk26q2WVp5F3BIu39s5UMR7j60El6I8ds1IrsShgjd0bryxE5V3dXU2PWgf7U8ByiToFLJfA2nNLAWsUXvG27HwouuyhpHWxBEZuHoScl05Fri92TDXZTT9lzYSGuvpzVPRyd3/9dpaaAn8OodBailc1QgeqiasBzCxlfADHeCpgHXDOvxq2bmk6TdRafRWkM0nkLwaG55fSX0XoAAW+E6Q5JYp1YuhhKzub/15KzV6O2b4aWS8RQdBWI3cbKFi3otl7jNC4gokPA/ii+PhGNQpY9tq6s3UimVumMI8J0A2DgGILgDtNAxf3dEYzpVdf/sh4MvtzAO8P0HvM1m1b6W82TLMDhqpdAqaGLgT0aIgESOiU50wd/lJP17S77NZbqn2NCVjWhVMpA4Uf2eUl0tBQ0PznADncje23hoH/Xjkr8nu0i2nlRgHLboeKtKeAVSQod80oYI3CN3HG+ibkC+eq4hJ38demd4FeUchvvaLnlli2FgnEk70nAIb1xXu6n+tX1bsVoUvF1JE3Q8MwXurumvpCKTnPmaeNQ0bfbMMMbT8zwyj8B8T4mgCJUvwFYIynAlaiLXusql4LyAx/s9F7DIS+Uijo8MgHLM1vTt88/flScp4z78XGIWPiK3NKQjgYwNcDsH3yXwiFPprumFpS3aWwsj9GJZbs/5RArQs2Jtof7+UI/ZGIfs0cDg1ZUbUuPFjSIeftaiTWbpiiQ+YsLWz77G/NT8M8BCIpP/3QQAHL/tyKtWZvEsHboPpvARMj7hFDv2zkC9lKnxUaT+buBdQSeP187pX1GnCHFuTKkY8ZdWrWhep7S13pb604k5DRZOZlZJutEdJLVHC4z1fu5RW4N9MZmQsR26Kd/b8uoMoFrEcF8k2zgBUWG9MIDxmivZnUlJxtVu1qxNZk95H8cJMW6re/x4TU+gHvFADNtv3tNMBUvKMnEfnDy+LViG+0qxFP56x94v56FBenu6JfLSapeDJ7J4Dji7H1yoYCllek9xqHAtYe8MRardsI0eGLLlVREqL6m23fCi7uTkUeraKyii4l0bb+WNVh3woNCjxriHmSQDbD0PUrO1qsX5scf2Jz0+OkqX6mJWip6rtV5UqIBOkskrGYeCZgxRb0HSOmXAdgn7GSqtC/Pw1DWw3Fpu1zqnmNJV05nYslkhbq182y5lRB5b8FIyv+/Cq+vGBI/gMrO2e86DQHJ/zF2/qOgsoNfp1TqvpbCeFCt+fUzIWrxtdjYkLNIVEY71IdEfQq+lDAsoc/3pa7GarWmU0Ben+RQRXzByFj3IUrOya48h5sh6LPxStTgLtF9CIZhoYaG3KlClZjMZm9sHef/DAm1xlimJDvQuU9lmQ+1rgK/PtLKnJbpjNymhexq1DA+r0Cl4ZEV+YLsqlpU2TtM8tl5AcSp59Zpw5ExdgaCYWNcEGt1Y1yoc0fdgum4J09scgfdxavrDwpYDndrR3+KGC5BNaeWwpYe+C138LclKGCnivApfaQ0npvBBS4pHF85JvPXSuDtUYq3tZ/FNS0zlaL+a924z2mMbzGNMODq+NT07u+EbqZr7Wlsq7e2AemERXDOBnQs92M55FvTwSseOv6D4kUvqvAQR7VZSPMjjkloa2rZzZlvJxTMxfqeKPQO1MKRhNCoRMA8wIbiXtiKsBXwiG56oWOyAZPAhYZJLEgd6SauhiA71bzmWq+DyH0yKC8lNkvutrLOWW9ToUbQ7MMhN6npn5PgFCRSB01o4BVHM54su96QA6D6pwgrboS4GdmoXBevmBuWLtsRsXPCN2nre/1YZWfANivOPJeWcmTEPOrGqr7W10hNPBi58S1XkW24oycB2bqBK0TMdT4ARRv9DJ+EbFeAnBrOhU9vQjbskyqRsASPGCKeRbU2Dx1w5p1zyw/2BXRak+wW85cN3GCWdecLwzXhzR0h6q+ZUSHGvXRrQLjA2Y4tC6Tm/wClstuC60oYJU1rfc8mAKWS2DtuaWAtRde8dbe0yGG9Ss0HwcIiMi3jGH5WlAOMHag5Ne4iM/PzocBazvKHt6QnI5YjL/Ce0Q10/3CtG48JCPbuir2zNVQonnDZKNgTDfNwgnWbaAVy6X8wJ4IWIlk3ykKWeqnLU6WyBCCudIXc6pdjTkr1k82xZwJA8crcHH5rXXMwwZDQm9Z2TnVN6uwZp01EA1tyZ9tnf7qWJUOOBLVDwKFF7oT07rRXtnXKUscrTM3TC+oeYSofhfi7es5BayxJ1S8NdsFwXGBWnWlukUFP2yoa1jk1gqiscntbhFLZh8A8B7/nAsnDxXqw6eHBgc3Tk409z3T7s7KGDusYqf2zTLChQbTCP9UFK+zM9Zl20cKarat6mp51s04gRewRB4SM58MGRNe8loI3VNfRravwtzjTZ9iqK7cML17NOHqZZ8UsFya9RSwXAJrzy0FrL3wstTwxkHjvG27lIvaqmsPfc1Zq0C+0J2KfLPmKreWXLVmP7ljS2rED/UbkLMKheFfZVY88yIeem9lhavdgKgc1No3cbMROhLAF6Dqt182i2mh6wLWjhV9liAaLSYht20MMT8zLA339cya9EKlRYbda1Vpbu2bOF6MjwDyBcXIL5t+eFaZgrdV+nDml0GMzCnTvAWCyX6AA8WHh8Pyj5l4YfWTHYfmfZHTjiSs7YWKxuZwYWR72lVe5KYqJ4fNDT9csXRf63Dqsp94Mmv9aj9yvo87j9yTTkWOccf37l5jydy1Aj0Cghk+P6fotckLHigU0BpuDG3qvmFqv1e8xoqTSGZ/qsAHfXJo+zMwjC/mh8OPr1kysc+Nbehj8Rjr360thsPaMMkwh38B6L5j2bv/79ZOB70znYrOczNWgAWsR4dDcqLm67asWTKp101GlfBNAcsl6hSwXAJrzy0FrDF4WTcSquIaASbZQ0vrnQmI4ltbGgtf6b1+2qZaI5OY33ukGoZ1npofzigyVcz3Y8PWP2SWx7b68UPgy/PDullv06aJk+ukbgFErBsbg/S4KmAlFqz/gJrmjYDu7wMopkA/NBwaenxVxz5b/DynDp6r9f1NGyeHC8NJhX7DB+ysBZlnFUJbl67qmLm5kvnMTuaOMKHLADRVMo+R2CK/1YL5uel1K57ym3C1KxtLyAqb41+vWjgTQEm3tBbNW/HhdFf0l0Xbj/X5pooErEQy26GCkwMlXAGWEHmfInx6SYdCOzURRvFzQFs2Nqj4BTByOUYlH+u8xIfz5tCx0U25DV5v67JfuMr+p29qGcoPPQjF671eobl7vtZWM1nWnYoutF9LcSOCJ2DJ04YRPm14EM/23DK5ai+TooBV3Py1bUUByzYyNwZQwBqD6shh05MmnA/RoH2BdmO+lOrz20ND+fa1y2ZYe/Jr7om35T4F1dsqvnVQQx8OG+G/vPjchGzFtwvamAXWF8SG4br4sITODtD5WO4KWK3Z41Rwh7urJ4pokoGPhHX4zy/GpmX9t+pqz/nHztdxoY3ZOaaJsyByVhGVumYiwEazTl+fubG5x7UgYzm2Lita2X88DL19LFO3/12lcISxecvj3fnEwN62R7idhy3/c+8KNU967/hGhE4X0StsjS3S2PoRSMLm1U5erFENK7B2nHX1CQBTAOxxy02RmD00k4fr6+qOlbqhrc9dGx3wMHBRoeJt2V8BOAyKcFEDXDHSP4al8PHC5oah7tv9szKtmFJnnZqJ1tfXhYc1/BSAmcWMcc1G5McFo+nEVR3iyo8kwRKw5Ekzv/nDPVtmrQ/M+0uJE4MCVongxhpGAWssQp78OwWsIjCP3G4Vyn6GWwmLgLWrieAO1fDFmdSU50oYHfgh8WT/0YBprWqo6G1o1hky3S9EHwqScPWa5qvKzNNWjwubDZ9VRRDOxnJNwEokcx9TmLcDUtE5BRMfSc+O/DpIwtVocypUqL/AB6/t/aFC4Q0rlk5bU4kXvVhb7nBR/X4lX6cEulFVjk0nIr8J6pyaM+/FxkLdlHkwR37wcnS7uMD8eHf8up+ivd10ao4EXcCKJ3PW7atJQBucYuK+HxlSNX/ZOCgnPXeb/4Qrq/5YMvcTa1VthbcOPtEwHu/3o7hnZ44kzljfpPnCM9BKrsC3zglT60D3pJ3ci7UNiIC1QYCl4ZBc4reLU4rlbNdu5LBd60YyuwPdtjcamrYWe5OX9Qt2Ixp9ddXnwHDB7Otq2VgMp8PaNdy9qt93V+C+0N+0qVgF94BzspPNQfHR4c2AOdQ0uGKpFHWWgrUSqb5pQn0x/fLKxnhJ1asPANZVp0Y4/wUIFnlVXxXEsZZ+X56ORy7x8rYo/3BTic/vOwGGUbFVDSoYVoQ+3LNhym+Lfa3yD7/dM7G2FQ5tiXwhACKWSwKWSiKZO1aBuyrWJ9UtEgp/vHv9lAerZU5t3Rz5XMVvnFVzVrqrZZXXfZ2zcOB1w4X8ZQJYZzlV5BHgOGzZ9ECgVl3tgdQhC7WuH/3j8ybOhupljgAVnJCORX7otLAXVAEr0Zq9RgX/A2B8hUUWe+0V/KnOkA9uxdZ8pbcM7y3xeDL7OIC32yvOKeuRLW/3bWkotFbLkRMHtfZO2iyhWwAcAWiFvovrc9DQ5emuJuvSF0efAAhYzzRsxTuG6waGnDo/0FGALjnzleDgUo10SwIkMAaBWGv/OSLmlYH6sFTpriqunLxxzRf9f2aBO6Diyb6jAdwJSEV+HVbVbxRk6MbV8X3S1SQgWl8Qewv9n1HRi3x83okrAlZiQe5INc0fVGpOQfU6hAtXp2dOe7Ha5tRas3+RqF4KoFI/1GzOm0Nz1izZx9PDZHecffVjACF3XgnH8KrmUemNzT+tBjF050qt16l1Zv9nyxaxLPFqQ+QHbvAJooAVa81eIwLrvLEKbm2z+5cigyr4BTa89KnM8vgWu6O9tB/ZOqh4XyW2p6viHxjWDzROifYVu0DDSzblxDrgHG3YuH5tuL6ublVFLslQqIrelkk1n1JOHaON9bmA9Xcd2HyI3//unO6J5Y8ClhtU6ZMEAkIgkcydptDvKBD2zzXCgYB3VToe+ZzTvxgHonIAM+avbqk3wmcrjIsrkrPgBN2w+V6/H9ReMpvDHgwn9n/zpxSFiwA5sGQ/7g10XMBKnLi+CePMBQqtyE2easjJpmy92+8HtZfc0pE59R/HqMASRity8+VQXX762htnrCu5BpsDZ7X2vldgLBep0E2WahyVTkz9STWJoa9pwWEPhuP7v/HzJW9RFTkxHWv6vlt8giRgxVuz34bAOq/OWsFSGbHV5t/XDvOnQ4WBt0br5xSe7BBf3aQ5WjnxZPZhAO8srdSyRv09VIj854ql1s15sFbvV+Uzss04PLkXWpFjJaythKl0qtkSgB17fCxg/bNhfO4/nrv2QGtO1dxDAavmWs6CSQCItWaTIrhxx69QLl4zXYW0Bd9JxyKL3PrQHQRi8ba+o6Dyo0r8igmYn2oYv/7uqn/TVpVZbdmTDeBiQA7w2bxwXsDafpultVLG89cjS7xqbGz6QbX9Kr77nFGZlew/3IDZDsihns8pkWFzaPOMnltintyMFGtd91GR0M88r9MKKMbR6c6p9/r51kpHuLSr9fdqJNK5i3TktWrsR2Cc2h2fegcuQQEirn2ZD4qAFU9mvwXggkq89o3drT1aWGLVQ+mByEfdWD1XRl57HJpozf5aBe/1fvGG/jM9EH1DUDiVzf4wDccPyA1UZAW5yC3pzoi1/daxx58Clj6fHogeVDNzapRuUsBybIrTEQn4n0Cite9UFbnZ/5n6M0MFrsmkouf5Mztvstp+6H/uRAApbyK+GkVEThscHLqtlm58jCX7zhbgy4BM95r3XuI5KmBNP2XNhIb6+pMVaonqHj96kZmvv6Gar5veFeiOlbeW2OD57VFmvq7ZC9azF2TfUVDcIYqExxPKWmBxTDrVfI/3cf0RMZHMfVOhn905G1UszHRFF3uZod8FrHgy9zVAv+AlE2diyXPpVMSPK4P3Wl68LfcQVN/jDINivWxjFW86qBZ/8Iwns0MVOJZkPYDvpVPRi4rt0Fh2PhSwVqRT0X3Hyrva/50CVrV3mPXVKAEVHPZQCIcdhkR37hNqnVUk3DJcxmQwReS67s7Ip8vwURVDE8nejymMe70uRoE/GmKe2d3Z8qTXsSsdL9aW+7royBdCz1cn7UE0BUoAACAASURBVKF2RwWsWGvuoyJaiZUyjxih0LkrO6ZaV4HX1BNP5i7b8eXZ8zlVF5Kpbt+UFJ+f/TAM/MLjppoqxtxMZ5O1OpVPhQn4UsDasWItnu5vB/RLFUZkL7x1wYXIb7pT0SPtDay8dSyZfUCA93ucSfe4UN0h/+yY3OdxXJ+EU4m39Q9tOyfP6/PclqZTkVanVr/6SsBSrEh3UbyyJjgFLJ/8mTMNEiibQLsaB2SfG7kBZGhL5N2mqbeKyLSy/da2AxOKYYh0pFORc2obxbbq29WIZbJHi8oPvWUheROFY3pSLT/1Nq5/oiVas1eojGwz8cP5KM4JWO1qxLv7joSMbB/08JE8tHBsuqvFczHWwyL3Giqe7PsaIJYw6umcKoTqWla5+KVuxvyNLeHQ0FmiuMRD1iow5u8Xn3rbQ+0y7GFchtoDAd8JWHM1lJic+5JiZF56LhyXMVFMAN1BXfVxyMIn6noL+92vUGv7oEePDArMn3Snmo/1KKAvw8STvVcChvW5xbtH8IBCFmU6I//nRFAfCVjpdCoy2ylhzgk2lfRBAauS9BmbBEol0K7G9OfXjnt5uDnJkPGD4feY0J+U6pLjdiMwLJA7C/nN53l1Zovfe1CZlTI6KIZxbPfiSM3P7URb9gpVOa9yV1W/MkMdE7DirdkPQXC/t3NfrUNPT6jlbV4v896+ug+LvJxTovqUOSX6zszV4sqNZYlk3/sV8oCnc0qxAsBp6a7oLz2Ny2B7JOAXAcsSUDJbYvV19XWLBLBuAg3KY51PNqCqv8p0Nc8NStK75plozS5XwVEebmdTAf7ZnYq+LqjMnMw7nsxuAjDBSZ9j+RJgcXcqunAsu2L+3ScC1ksALkqnolcXk3Mt2FDAqoUus8ZgElCVA07OTTInyG5/p4PD+gbDkAeh2hDM4vyetVi3mSxJp6Kn+z1Tz/Kbq6H45PUfA8y7PYsJCg27fRhvy31XVc+u8ApqZwSsdjUSK/sPV0Pv825OYUg1dGKma6rHqwg9rNBWKJVYMne1ANb2aM8+E25tKEzqvX6a9cXG2ce6GW+/fz/c0xV927dW/U93Krrc2WLorRwCfhCwDm7X+g3p7PmAXBawm56tVYSr06loBc6QK6fru4+NJ7PWDyQfctbrHr2pQP/ZnWqmePUyImuVdTqXAzDFox5YYW7Wgc1nZJbHy/6RxAcClgLyfBDPnXOz3xKbm35lFYebgei7uglMb1o7PGnmIaPeJvOQVXotLqk/TMNz5iDcYPTVbWmoC5tDIprfKMDkoiaDGkMt4TB+qyrNAVtuXlR9PjWyhKt+VXw/09V8rk9zrEha8dbeQyFGJ4A3eZWAAF8ZMuu/t2bJpF6vYvo9zrZfMz8jqhdqZbcHOyJgzZzX9zrD0KtEjI96xV1Erh0u6LdWLYmmvYrp9zjxZO9ntm8llBavch0OyezVHU1pp7dDxOb3vkcMY+RjhyePYAtUWtOpyJ2exGOQoglUUsA64Bxt2Lp5YIKBwmkK/VrRSfvCUHoV+nAmFf2kL9IpI4kDTspOHmqUe7zaPiiKdd1dUT9duFIGPeeGHrJQ69aZ/Zs9PQ9L5MZ0Z+SMcquosIBlfa9+MZ2K7l9uHdU2XuLJvsuqrSjWUwECgj+JqrVPfrdHRAtbw+YTFciqoiHrh+TNhhF+m6r5dpXQf8HUcRBYK6a8PtCwohwCEtwSrjYAcl86FU0GJGdP06zAVq8BiHFqurPJ47ORPMVaUrBEW+4KhZ5dkWuqt2fsiIBVga1eA6pozXRFufpql5kXa+37uhhyrpdzSgc2j3fiF/KdS4m19R4majxY0h9WSYPk8rw5eM2aJftQZC+Jn3uDKiVgWQsDZPL40wH5BqD17lXosGfFEET70qnmWQ57rpi7eDJrXQ7i1Q8k1negf6RT0YMrVrBfAx/2YDi2/5t+KZ6eQ4abnNhFUUkBS4GNoUHzoJW3tqz2a2srlZfEk9lRV81UKiHGJQESIAHvCMggoDnrvJTpoabkkx2S9y52cCIdPPeZ+o2TZhytgu97lLUq5ORMKnK7R/ECFyaRzHYosKBCiZcvYLVrOJ7OHgmIV1tSrZtE/6e7M3JrhZj5Paz1efAG6xwnrxJ1WsCKna/jjI39n1TVZR7VsB6C09OdUa9eFz0qqzrCeC1gxc5Pjwu91DjVLBgnbTvz51sBo7hK1Ph1d1fTqQHLe6/peiZgKRQyIl69oZr4OVnLnHkvNhZCk18AsI+TfvfsS28vbB46d9UdM8u6BbKCAha3o+5lolDA8uaviFFIgAR8RcA6W0nWAnh8aCiTXLvsTdYBiXz2QGD2/Ow7TAM/8O6DB1YLzNO6Uy1eno0UqP4nkrlvKMyzAfH0cNQdkMoWsGILc28UU1NQvNUb8PKc6vCnM13Tfu5NvOBF2XEroXXb6kQvsjcN86Cexc3/cmobYaI1904VfdiL3K0YloCcSUWtbdV8fEjASwFr+ilrJtTVh+cLxBKuGn2IY08pbYZIXzrWtC/aZdRdFAGq5TWpzpi/uqXOqLsLkMM8qGFA6kNzum+Y2u9BrMCGaDlz3cTGwdBGzwoQuS7dGbHODC35qaCAtSmdik4qOfEqH0gBq8obzPJIgAReJiAFQAcA6Qf0j+nOyIkQ4QrUIiaIx1u9NgOS5JkyYzcm3pbthIlWiHeHb+/IqnwBy8uzilS3KHRBpqvltrGp1rZFrDV7k8jIyj4vDnTXaaFIg1MrX70UsFR1nQE5p7sreldtzxj/Vu+FgDU0NHRyYwOmqVl3lAqCdUPYyM2Z8rP0xqZPY7n1+ai6nngydy+gH3O/Kkv406fTqahn54O6X5M7EWYu1PGhQu4ZAHPcibCL1+AKWNZ3k2fSqegbPeEUwCAUsALYNKZMAiRQNIGCKLIqWA+gHyI3pzsj1jYZPkUTUEm05T6gCq+uh18uBi7tXhy1PuTw2QuBRFvu86p6HgCvD40tU8BSSSSz77O27nrU4B9pQdozSyN/9SheYMPE2/q+BDXOA9S6PMT1Z1ooUu+EgGUdmj30Us4SEbzYzqcCOaM7FbnJdUAMUDIB1wUswQOA/AiqVwVs1dUAoOsKoaE3reqYublkwD4f6J2AhU3pgV9PxfLjqk4EdKPF+y3MTckX1PpM7sVzc6hgnLdiaVPJ8SqyAkuwJd0ZHe8FoKDGoIAV1M4xbxIggdEIqACbFMhY/6iKfpjmdZmlLTxLqcT5Yn3YGB7W+R79ujwsqsnuruZbSky35obFk9mlgJwKWFPfs6csAWvOvP6phbCZhOLb7mcs1sHE1jlFS9yPVR0R4q3ZLgjme1FNqNCwz4qlE9eUGyvR1nuIwvgVFE3l+ipifEYE53d3Rq1t1Xx8SsB1Acunde89Lf2XGsbd4fyGS1Ys3XdrIEsoIulYckNEMGzdDPrBIsxLN9l+9tX/pVPRN5fupLZGNrf2ThonhnWx17+5XbkI1ilwRbozemWpsSogYKkCf8mkom8pNedaGEcBqxa6zBpJoDoJmAL8SwVDr5YneTHNR7q7ms+tzpK9r8rLa+kV+r8q+ExPZ/NvvK80mBETbdl2VTkb0KiHFZQlYHm51UuAx03T+EJmSdNvPeQT6FDxZN9XAWtOYar7hej16VTUOsutrO3cs9qybzcUj7ufr3X2lZ6TSTV/z4tYjFE6AQpYr2Fnnc20WhF+VyY1JVc61WCMjCWzFxuCs1Qxzd2MdauZ3xrruSWWdTdOdXmfdepA1KjLl3W4erFEFLgmk4paK9VLeiogYJX1+aqkIgM4iAJWAJvGlEkg0ARUeyCSVZR35oIB3WrWjZubuXF8T6B5+Dx5TwUsxcJMV3Sxz5H4Lr2gfcDyUsCCmmeku1pu9F3TfJ5QvC13M1Q9uZEsHY+Eyj1A2kMBKwPBZ3jzoM8nMAAKWK/06BlRLN/SWLiy9/ppm/zfufIzjCdzdwN6dPmexvDArV4lIR5ZhR0y/wjgwJIc2BgUPAFLn0inmj263MYGSJ+ZUsDyWUOYDglUOwFVtOXz+TvXLpvBm/8C0GyvBCwBViqM89KppnsCgMVXKcbbcpcDOAOqXmyfsmov6xdCDwWsbhXj/Exn04981bAAJDMyp1TP9GIVVrkC1sFztX5gyvqPQk3XXzsEOK87Fb0mAC2s+RQpYMH6obA7FCocsbKjZXUtTQiPBCxr1eij6VT0XbXE1pFa52oo1jRwqBSGf++Iv704EWDxlobCBaWKtx7/QGim45G6cn/QcZupH/xTwPJDF5gDCdQQAcM0D1m5pOWpGio5sKWOXA1eV3eCCDy4Kl7OSsebbuQbt/3pMnPhqvGhQsMyAJ+wP7qkESULWLG56XGYPOEYgbp+I6BCzsmkmq4rd3taSYQCPmj7Fo/hTi9WMZQrYMUXrt9fCoWbFHi/y9hN69KETFfztS7HoXsHCNS4gPV/IviRMWxcU84B1g60oSIuPBKwSn4frAgUnwWdfvqaafX5urWup6X61LYLx9u7Uy33lRLLcwErFQ2VkmetjaGAVWsdZ70kUEECAvy5YJjH9yxu+WcF02DoIgnEF2x4K8zhnwFw/0YybvUqsiujm8WTWevA2uPLclL84JI/uCcWZA9Wc+SmuIOLD1eaJc8qKo3by6O8+uCuIfmPTEfpN0TG5/W9FSGxtqO4/MjfoPKFdFfTvS4HonsHCNSigCWq61RkhSH5E1Z2znjRAYyBcxGbt+FACVniO97tcvIlvw+6nFcg3CfOWN+k+cL9UHixXe6qdCq6qBQwXr0P7sjt4XQq6va8LQWD78ZQwPJdS5gQCVQxgYL+V3pp85+quMKqKs2zrV4izwOyKN3Z9OOqAuhhMdu3fOF0QCMehC35g7t3ZxXp82qELswsbrrbAx5VGSKe7LsMEGsboctbU/XJdKr50FIheiZgKRalu6JXlZonx3lLoBYFLEAvV9RdVQsHte9pNsWSfcsEcgKAsKszTmRYUXD3lkNXC6i08zAMMaft+EHL7WQCIWClU1Evb5N2m7mr/iWe7NsCSKOrUeicBEiABFSfKqD+xFVdk58ljGAQ8EzAUiyaFn7x2ic7Ds0Hg4z/spx11kBUtuZvEeBwD7ILgICFC9LxyDXcklr6bJh9cu8+2mB0qgdzqpwP7hSwSu9xNY+sSQFL5YytjcO3lnreTzXMh1hbdrkojq2GWliDYwQoYDmG0h+OJJHse0ohb/FHOsyCBEigWgmoaRyWmT31YX6hDE6HvRKwuNXLmTnh4Qd33wtYPGzbmTnl1dbUAAhYOQAXplPRLmfI0ovbBGpSwLKg1riI5eH7oNtTmP6dI+B7AUugz3anml/nXMnV7Uniyf4rAfOC6i6T1ZEACVSYgGoo/P8yHVP+UOE8GN4GAQpYNmD5wNTDD+4UsHzQby9S8LuAdchCrVs73P8BEbXO6nPz+b6Y+Er3kujf3AxC384RqFkBy0IocubQYNMta5dJzd327OH7oHOTlZ5cJqA3FEJDn1nVMXOz3UBenYGlqp/IdDXzyIMiGyTx1rUfgoTvL9KeZiRAAiRgn4Dob03RhTy83T66So7wRMBS/RcEn02nmu+pZK3VEDvRlvuuqs4HMNHlekoTsNrViGX63i1qPOhyfitE8bnuruhdLsepeveJtuwVqlgIYIqbxZa6Aive2jsTYlwOYJ6b+Sn0c5lU8xVuxqBvZwnUtIA1glLPGhoavnntshk1JWJRwHL276gavKnqbxTy5Z6u6ON26/FKwCr3Nl67dQXdXg6e+0z9wOQZg0EvhPmTAAn4l4CovKu7K/KIfzNkZrsSmH6KTmisz33KBBa7SUeBSwYbClfV8pkdTvFNLMy9Uwt6NYCSD8QuMpeSBKz9FuamDA/rfBVYObr4yLcLofA3V3VM7nMxSE24ntXa/yZDzO8BeKebBZcqYM1qXfsmA6HHITLOzfwoYLlJ1x3fFLC2i1iF0NDSUlaeuNMV971SwHKfcfAiyHqF+Y1MqvmbdnOngGWXmDf2gnY14ulcwZtwjEICJFBrBATyoFEwz1yxtPkftVZ7kOud3db3elNxCyCuiiE8q8jZWRJP5u4G9Ghnve7mrSQBKzZv3YESCqUAvMvV/HhbnKN4vfhCqHmNZW5p7rGb+OzkureYCD1ld5xdewpYdolV3p4CFqBAwYAcM2mg6f5nlstQ5bvibgaHLHyibt3wnO9D5Bh3I9F70AgI5IruVORzdvOmgGWXmDf2FLC84cwoJFCzBNQ0D8ssafltzQIIaOHxBX1vhSkPARjvZgkUsJyl62cBa9aC/jcbpmltH5zqbNW7eKOA5SheTwQs0XMznc3ftZu4RwKWqsrnMl2Rb9nNj/aVI0AB6xX2vx8ayh+1dtmMdZXrhjeR5yzof3PBNK91e8WoN9UwipMEKGA5SbPyvihgVb4HzIAEqpeA4IGQoees6ODqq6A1eVZb9u2GwvZ5AXbrpIBll9je7f0sYMXn9b0VIfmjsxWP4o0ClqOIvRCwoHJ/uivyEbuJeyRgbYDoF9KdzTfYzY/2lSNAAetV9qI4fzg82FHtWwljbb3tosZZAJorN/MY2Y8EfC5gpdPxyBze0l78zKGAVTwrWpIACdgkIIIPdXdGHgBEbQ6leYUJUMCqcANKDE8Byzr2BYvSXdGrSkTIYbsQ8ETAAlalU9FZduF7JGD9Xgy9qHtx8wN286N95QhQwNqFvWJRyIxcv2KpbK1cV9yNHG/NdkFwMoA6dyPRe9AI+FnAUuCaTCpyPr8rFT+rKGAVz4qWJEACtgjov2DUnZRePOVPtobR2BcEKGD5og22k6CARQHL9qQZY4BHApaZTkVDdnP3RsDS642QXrayo2W13fxoXzkCFLBGYa9Y1DAhct1z10pVXt4VS/YtE8inANh+LancTGVkLwj4WcAyIEeuTDX9jAJW8TOBAlbxrGhJAiRgi4BeZDbW39Bz3eSsrWE09gUBCli+aIPtJChgUcCyPWkoYO2VgEC/2J1q/rrTXOnPXQIUsPbI98L/396ZB8ZVVX/8e+6bJF1omswkbWln0oJFlqKIgAI/F3DfAbWAItBm0shWFpF9C6DsyA6SZtIqoGhVREHcEARcUFBECwqFtjPTljaZSRe6JJn3zo87SUqaps0sb5vJuf9B7z3L597MvPm+e8+t3hC8vRyLukeaUj8A43gA5OzqEuulRsDPAhYFMCt+b+ilUmPqZbxZAashkX6dgeleBiK+hYAQKCsCvcT8mXi7HLko1VkVAas0Z04ELBGw7F65o30HlghYdq8od+yJgLVzzsx0/uRA7a3Pt1KvO7PhjpdINPUggOPc8SZeSomAnwUsRiCUjE1MlxJPr2MlgCnS1HURmL/tdTDiXwgIgbIh8CNG4NJkbOLSsslolCUiAlZpTrgIWCJg2b1yRcCSHVh2ryk37ImANQJlotMS62tbsZhMN+bDDR8iYLlBuTR9+FnAmmQEK8tNTHZ6lWS3WE5rSoUVI+G0M7EvBITAKCDAYCZ8JhkL/XoUZFu2KYqAVZpTKwKWCFh2r1wRsETAsntNuWFPBKwRKXfBMA5JtE58vVxq70SiqR/278CSI4QjTv/o6iACVnnNd/YP/KBmrlhrpnvKKzXJRggIAY8ILLaUdenKBfWveORf3NpAQAQsGyB6YEIELBGw7F52o13AAvAt0+i+dlXr1M12sxV7zhHwqYCl69w8zURdxNYRAB3qHIEcLBNiifXBr5fLLqxwNH0fAV8BWIq45zD9o6mLCFjlNdsiYJXXfEo2QsBjAsSk8IX4guAjHgci7oskIAJWkQA9Gi4ClghYdi89EbCwmBSujC8ILbGbrdhzjoDfBCxm/FkRbrUQeFzXu2loSn0cjCsZOMw5CiNbZuCKZCx4dTnswopEUwsBfO0t0TkwcubSY9QQIHoNlvWtRHvdonxzbmhK38/MJ+Q7Lp/+coQwH1p9fUXAyp+ZjBACQmDnBB60lHWF7L4q/SUiAlZpzqEbAhYzr022103Ol1BkTuchMOhv+Y7Luz/j3ER76Dt5j5MBwxJwQ8AqdE1Nj6490ILxD0enjvlVIrokHgstdtSPGLeVgI8ErFcB/IHAi+OxuscHJ+kXEYsIV8bbQi22ToAHxhqindczqBlAjQfuxaVPCRBYi1AXJNrrV+UboghY+RJzp78IWO5wFi9CYJQQ4GMSsbqfj5JkyzrNcLTzfQQ8BVCVk4kScHY8FrrNSR+jybYLAhYz88+T7XVfzJfr9OZ177Uy5jMgjM13bF79RcDKC9dInd0QsED4faIt9PGRYhn6764IWOCtTLgg2VZ3e77xSX/vCPhBwCLgL2xZdxjMTyxfNOmN4WhEGlOfAOFKAJ4eJyTgqngsdIV3M1a856nRjs8bUN8C8O7irYmFMiLwnUQsdG4h+YiAVQg158f0Fbk74olA5B3vfhTAJ5x3KR6EgBAoTwL8A0vxlbL7qjxmd8a8rveYlqW/F6Y6mZEIWPbSdUXAInNesm1SLN/IG+am9oPCYgb2y3dsXv1FwMoL10id3RCwCHxhPFZ3/UixeCNgAQy+IBmruyHf+KS/dwQ8FrCWgeg3RNZP4wvqfr9rCkzhaNdXCHwpgH29IwYG6JpELKjjKMkWjq4PAub3CfzZkkxAgradQN/RXb586O7HXB2JgJUrKXf79d/SwBRp6vgA2HjKXffiTQgIgXIhQBZmxxeGflIu+Yz2PKY3d+xuWcYlYD7dSRYMunBipPaWJS0kF4kUCbqhcd2eTFYM4COKNLWr4VYAas9lsdoV+fqYMefNKabquRTk7JoC43LeuPmm5OLIlnxjlP7bE5g6NxUxFLRYmffuqHxYMgJ7JWMTl+YzRvd1ZweWCFj5zosf+nsoYD0L0K3caz2d/H7dylxYTDspGVKV464G81wAY3IZ41AfC+DrE7G6ix2y77hZNwR3x5MQBzYRoBQDNyZjwbxfjgwEIAKWTVNhs5lt14yGZyfGUvU4uWHFZsBiTgiMCgJM32cr863kokm61oO0ciBwxBOB8J6zPk5k/MrJdPTbMSh1SbKt9kkn/YwG25Gm9CVkWWcy0SQH87USsVBBNzzNms2VG6rXfQawHnIwPl3e8xkmukzWVPGUw9H0+QQ+G8DuxVvbuYVELFTQtffhOWv3gqF+RKADnYxPdmA5SdcZ2x4IWAkAvyLmn8TbR9p1tWPOfXUn+VqAnHwBkQNs6iHw10q15psIWDlM8SjpwsCjSuGCYi7gEAHLn4tFBCx/zotEJQRKiAAxMR8fbw/9uISCllBzINDQmP4AEz+dQ9diujCY5yfa6+4qxoiMBVx6cC9YwNJz5MblAATqZbbOkTVV/F9FJJp6EMBxxVvatYVCBaw9m9MTe02eB+BGR2NkvuTQjaHrFy8m01E/Ytw2Au4KWPw8iG7MKPrL6tZgvNAkpjV2HEmkvk1e3kzIb92NSPSPSUbtYc+3Um+huXg1zqXvQa/SE7+5EWAAzzBZlyfb6ot6OSoCVm7A3e4lApbbxMWfECg3AoyFTOY1ydikvI9/lBuKcsvHJQFL15eZn4zV3Vlu/NzOx6UHd98LWJq71FazZ/X5XcDC7B8b4ZqPf4Asq6gfKSPR0sW4Ab6s0DoqI9mXf7efgDsCFq8B6FFSxg/jC2pGqHWVW47hpo4jFKtr2EsRq+8lwD3J9rqzcovaP71c+h70T8ISyfYEGP+G4h8B6qlEW7DoF7AiYPlzgW0TsGbO56ruzelnABzsz1AlKiEgBHxIgBn0tWQs+AMfxiYhFUlABKwiAbo5vIVVJJFaDFDetwPmGaYIWHkCK9Xu+rmwZ3P6AQa+5HQOhe7A0nFF5nQeAoP+5nCMFhHOjbeFbnXYj5i3iYDTAhYBL4BxLQeM5xOtNa/ZFHbWTHhu14dJWdd5fDOhrkt5VyIW+oaduTltSwQspwn71v4GMD8Og+7dYlp/7myv32hHpCJg2UHRfhtv1xxoYRVOpD9BwGP2uxGLQkAIlCMBAtrAxrXx9prXyzG/0Z6TWwIWgL8yWRcVu9V7NM9XpCl9KjNfQMB0hzmUhIAF4GlAXZqI1crlNAUuiEi08zQGne/CmkIJCFi6kvu5ifbQdwrEKcNcJuC0gAXQzxOx4DFOpRWJrv0QYOji04c65WNku9zNoO8mYyFdB68kWiTa8SCgZgNQJRGwBFkoAS2wvgyiR8H8GixrCxvWkmTb5BcLNTjcOBGw7KRpn63timbWn7Z2tzHdhi2KpX0hiiUhIAR8SqCHQXNl95VPZ8eGsPrrFf0OwG42mNu1CbZOTbTXf9dxP2XqwK2jXiD6ZaIt+IVCMTY0dRzErPSaqi3URo7jTBDNT7QF78mxv3QbQsCNB/c+l/y3RKzu/YVOgEs7sHSci2AEvmX3bptC85ZxuyZQ6gKWzm5aU+dHFJMWsTw8HcNbGXRvqYhY4cb0p4lY7157t8N/IyaBow77EPM7IWAxZwxVsbrbNP79xsIJHU6BcuN7cJIRrCzFenNOMc/FrghYuVCSPkJACAxDgO4OgG5YFqtdIXjKk8C0kzaEVIV5KmBd7XiGImAVhdgtActS5oErF0x6odBgpzavqguYFfMZ6vJCbeQ6Tmqr5UpqmH6zf2xEJnz0PhC+UoSV3IYSfaiYWiV9oig9A9CY3BwW3Gs1M52XbA8+ULAFGegagXIQsDCbjfDE1OkEdS6YG1yDN9QR8xZSaIu31Z3pWQw5Op45/9Wq7s2hxQB/PschhXbrTcRClYUOlnGlQUAELH/OkwhY/pwXiUoI+J3Af4jwjXhbSO+kkFbGBMJzOz5MSjlaILkPHz+vKHD+iraaP5QxTkdSCzd2ziei83Q5IEccDDJazFGvvmlmmhbtPEKRcmOenyPwhVJ4O/9VEY52nkHIrinHfzQnIkEDLWTlH2XfCC2KGmaVLjZ9aaE2ch0nlwPkSsr7fmUhYOkP9caOqUxqATE+DdL3U3jUCG8SbDZUBQAAIABJREFU8x3xWN3FHkWQs9tINP0QwEfnPKCwjhYY30u0hxoLGy6jSoGACFj+nKXtPggPauaKtWb6DAByxt+f8yVRCQFfECDgKgubb0vGImlfBCRBOEbAPQFLaxtoTraHFjiWTJkaduMBawBd0QKWVkQa0x9g4qJvB8phOplAp8ZjwXtz6CtdBhGINKW/B+aT3IBSrIClRdHIvK4PgNmFemf0FJC5LBGb5IIvN+iXr49yEbD0DIWjne8j0O0ACj5qa8NMMwErTFZHr2yv/ZcN9hwz4ZKApePflIiFnC+x4BgpMTwSATeer+QI4UizsOO/76Dkz5jz5hTT6F6dvykZIQSEwGggQMACcOa6ePtkKdw+CibcTQELRNf0mt23vrFwd8fqGZTblEXmdh4FRVe5UO8ji67EBCxdePtWwLox0V6/qtzm3ql8IvNSn4SFb7lVd6doAStbKyh1qGL8xSkmb9ulbiKcGW8LtjrvSzwUQ6CcBKysiDW38/1k0B1gHFIMl+LGUjdgPZpoC30ZRFycLedG9x+p/zIAwzkv2jJv3cI8ya4b75yNVawXQkAErEKoOT9mBwFrz+b0xF6T1znvWjwIASFQkgSITku01X4X8O/DS0ly9WnQkeZ17yDTvJ6BLzkfIi0nmGfGY/W/dN5XeXiIRNN3ANwEwOn6PwDRGYm24F3FkgvPWbuXMoxbGfhMsbZyGJ9k4rOSbXU/y6GvdNFHlqIpvQv/6wDGOQ2EgbOTseDtxX6fuCdgASDcqpR1w4rWennZ6/QCKcJ+uQlYGkVkXuchsHAPQAcVgabYoZsA3J+IhU4p1pBT46dH1x5owdAXeDi9Y80C+JFErO4op3IRu94SEAHLW/478y4Clj/nRaISAj4lQHebFl+3amEo4dMAJSybCWQLom4JHg3GgzabHtYckTpLZWpaly+irW74K2Uf2Tfyim4E8EE38qgah4lL7whtKNbXjDnLxpiB6qNcW1OgC7p7eu5ac98U/cNL2i4IzJi39j2WqW5moo+4AYqxOWTHUfQpczfWVxi9Z4PZ+fo8zCtJ0dnxttBP3GAkPgojUI4ClibR0LTuIEamFUzvLYyMLaM2AXR/Ihb0rYgViaZ/4UIhdw3zzcSGYA0Wk2kLWTHiKwIiYPlqOrYFs2MxwBYONCTXH81sLvZnyBKVEBACnhGwaQeGZ/GL44IINEQ7P8qg3xc0OP9BrzJwZjIW+nX+Q0fXiIZo5/UAncrABDcyt+Oo10Ccrh5NBV5XoDNXxIKPusGplH1EoqmrwXwmiKrdyMO22h8trBoSqSNd/Jz6jjKsm2QXlhurpDAf5SpgaRrT53a811RGG4EPLIyOHaN4E4N+kIyFmu2wZrcNFwUsE6BHE7Gg7MKyexJ9YE8ELB9MwjAhDHubxdTmDXWG2Ss1SPw5ZxKVEPCIAN3JFdZ1ye/WrfQoAHHrEYF+sUH/+B/vRgjEuJEC1i3y43DntCNz1x4HMi4HYT835oRB/0xGbj8YLS0F3xY3OM7+Qu76FlPnjz7qU19Ed2RMvlF2j+58tYSbOr9ITFe4VU8N4NcSkdA+aKGMHWvYxcsBdLiryMJZ8YWyC8uOuXPCRjkLWJrXtMaOIxUpfaR7Xyf45WjzTQZ+6EcRS3+eKcY1DNo7x1wK78bYYAaCu69qpc2FG5GRfiQgApYfZ0Wf5B+mTTtpQ0hV9Hb6M2SJSggIAQ8IxEE4P9EW+pEHvsWlxwR0bcSMRSczW7e5EgrzG0SqOR4LSi2snQBvaEzdxkSnAFzpxpyYUO9dFav9p12+Zp6Qqt5axScTZW/WcrwxYy3ApyTb6x5y3FmJOohEu24G+HSAq9xIwSIctrIt+Gyx9a8GYp1xStcMs9e6FsDxbsRPjD8DdEG8PfiMG/7ER34Eyl3A0jfHrzHTNxLoZIBr8qNja+83Cfhh3Gc7sepnr91tzETjITA+Zmu2wxvTxwd/l4iFPu2CL3HhIgERsFyEnYerYQWs+tPW7jamu6IdsGbnYUu6CgEhUKYECHS9hU032FGrpEwRlX1akcbUJ0D4jYuJvkowTo3Hah530WdJuApHO88H41wimuRWwLYd9RoUsMtHU/U+rKVgPj3RHvqtW9xKxU+kMXUuCOcBmOxWzLxh87jk4sgWu/zpH/RrzdRnAXJLpOwhcFM8VnefXTmIHfsIlLuApUlNa0qFFdPPAfayqLsOZZUCrlgRC7XZN4PFW4pEU78C4Jao1APCA4m2UGPxkYsFvxAQAcsvM7F9HMMKWGhhNW1lx7uVZdj2ttWf6UtUQkAIjERAH71Rmcw1yxdNemOkvvLv5Usg3NRxBLHSPwxde9PLoBOSkdoH0UK2HFsrh9npL1Z9G5i/4mI+Tydee/EjePJIW456DcTdf+TrYQBBt3Ih5pPjDaH7ZU29TXzyKW9MqshU3kzMX3NrHgAsqRoXPGjpHdRtp0+Xa6tpUXQZE85ItgX1D2VpPiIwGgQsjXtG84Z9TLNX1y3e30P8GWZ+anM3HZN+oPiLPuzKIxLt+hBg3eHesWgkE7FQxK74xY73BETA8n4OhotgeAFLv4I75Y1Jlb0Va/wZtkQlBISAWwQYfEEyVneDW/7Ejz8JZHfm9ga+Bov11dRuteXEPC/eXudWAXm38irYTyTaeSlIfQPMtQUbyXMgWZgVXxh82a6jXgPuJ5/I4ysqOk8gUvfmGVLB3RlYQYxm2YX1NsJIY+fFIPomANfWlAnzvava6l8AERc8mcMMnHziG5MqKyvmA7jUTru7ssXMj7BhXLZyQe0LbvkUPyMTGC0CliYxtbFjb4PUzwB3aiLuhP5mMP8k0R6aY/d3xcizPXyPWbO5cn116lcE+mihNvIclwHh8URb6FN5jpPuPiUgApY/J2anAla2DlYg8xyIZ/gzdIlKCAgBpwkw8+0ZrvrWGwsnyKUOTsMuAfvhxvSnidjVnQZacGBWc1e21z5RAogcDTEcTZ9PzOeDEHLU0RDjdh/1Gmzeg6Op2n2cCE3xtpAuIj+qWySa+qau4wRwnZsgtlaZEzrunvSm7T5bWIXjXZ90+XNqMwFz4rGQ3N5t+4QWbnA0CViaUji6fiYh8wuPi7pvAuPHiXb/HKOLNKZ+DcInC19J+Y6kXoCfSMRCLvrMN0bpnysBEbByJeVuv50KWJjNxrQJ6fcp0kUqpQkBITAKCSxh5suk6PEonPmdpKwLb/eMwVwGbnWVCuHHAcu6fFl7/f9c9esjZw3zuuazZV0EYHc3w2KyjkyG655y6sjd1OZVdYZZeQpAV7uZF5gfIqZL4wtDL7nq10fOIk1pXbD9ErC7a8ogdeTycI1jayrc1HUEwfw1mFwpRp+dUsJKZjQlY6Ff+2iKR3Uoo03A0pPd0LhmTybjMYDe6d3k82aAHkzEQlHvYnjb8+7N6YaAyfoCokPdioeZ1yoV+Ey8reZ5t3yKH2cIiIDlDNdire5cwAIQaeyYClIri3Ui44WAECg9Agy6vren5+o1903ZVHrRS8ROEYg0dnwBpHTdIjfbZiY+Mbk09As8SbbWYXIziUJ9TY+uPdBE4GoCfyb7U9nFVrUVE5c6WdOEmRqaOj/HUHrngHuNeQuB5tQHlj30fOvBve459oenyCnp/dGLqwE+yu01RVuMYPwHNV1OkQifw2Npfeo4EC10ysdO7K6GwtzEgpCbl124nGLpuBuNApaenb7bOM3fATTTw9naDMaP/LITKxxN/Z4At44Rauz6VsK/J9qCh9t9TNrDOR2VrkXA8ue07/JBOFsslnqeBHl6ptqf5CQqIVDGBJhxu6oyWuL3OPcjo4zxlXVq06NdB1qw9A6sD7mc6BpW6rjkgto/uuzXU3dTm3lcwExdzkxngjDW1WCIrqlev/rKJYtn9Tjpd/rcjveaSt1JwGFO+hlqO/uWnPDVeKxuVN10OfnEN8ZXVlVeDOazAYxzkzmAB7k62Ji8hWy7fXC4+D06mgqA1xDRiXI81eVVNYy70SpgaRQNc9OfY8Wtbu/YHTINm/Xfux92YvVvyNCX0LzPxZWZIcJT8baQm8KZi+mNDlciYPlznnf9JreF1fQV699jKVO2QPpz/iQqIeAAAeoBW1cm2uuuccC4mCxxAvqq+jVW13HE7PrV8VpwIKW+nGgLPl3iGHMMv0U1RM+4AKCLGJiQ4yDbunEvh5PfD61yuiDvrNlLKtdX7/5lAj9gW/A5GiLCWgvWccm2+idzHFLa3Waz0VDd9U19dNCLNQXDmJlonfi602tqxhweYxmp4xi0yO0JI7C+AOmE0SaMTp2biijib4JI7+rbvjG2kFIXJtpqXdu9O5oFrJnzX63q2Rx6DMAHGFzh9t/AIH+bwHxfor3uVA9jyLqONKWfBPOHXY4j81YB+afjseBHXPbrC3fhr6/fizK9jzEooAMigAl41cLm45OxSNoXQY4QhAhY/pylEY8i6C8kQyHuz/AlKiEgBGwnwLh1C6zLO9vrN9puWwyWBYFIdO2HCEYrA3u7nxB1EmeOibdPesZ93y56bH6uIpKZcR4RXeiJ0AB6kKtrHd8pM0B0+rzU4ZYFfRuhF1fBpwD1xUSs9ikXZ9h9V81cEc6kzlVEF3uxpgj8ROVWOtrRI6mDqHpx6cQg9ymLrdkr2+vL/vKJhmjXWUzWeWAOAKSF9uF29enbJteBsJkIV3Zv7f2B0+UJRrOApdfhtNM3hNTWzN8B3sP9D5vtPD4LNs5ItNc852Uc4VM6p1EvHgboIJfjyBD46XisbtSIWJFoeimIx7DFFURUP/iYOoF6GdwJgqV3rCba6tyej7ymXwSsvHC51nlEAWvm/FR19yZcCYLeai5NCAiBMiZAjNu3jDEvceR2qDLmNtpS07uwOszUV73Y3dDPusu08LlVC0NlecnIjDldNWaAv9l/xGu8F+srADVjWawm7vROmYHcsjv7Ml3HEvH9XuQLoi4gc1SibVJZ7u7LrinDOhfAOQA8WVOMwF7JWPVrbq2pvl0otccy6PuerClgHSt1dLkee57e1PkRi/UNljgcwG65MiZgIwhbQBSNLwg+kuu4fPuNdgFL8+q7JKPqH3oDUr787OtPvWD+SaIh+DWnLgPJLVamSLTrKYA/kFt/G3sRMsTlvxMrEk29AqAawKQcaytaANYQ6L9+3aUmAlZhfwd9pzVSn1dM32Rgzz4rnCCF2ys308PFvsgaUcDSu/1mzEntbRr0cmEpyCghIARKhIAF0LWJWPDSEolXwvSQwIw5nfuYiq4A4XiPwljPjGjA2vDo8kV7bPUoBtvdZmv3gC6G4veBXa55NZAN45uGteEut7mGm9LvJubrAXzKdrC5GVxPCs3Wus2/TC6OOFqjKbdw7Ok1rbHjSEXqIhA+4NmaIvru1srMeW6/HGmIdnze9QsCBk8bYwPI/HwiNqmsdvdFmjpPhUXXgbK7rbLHg/JtrIUsRcclFwT1UTfbmwhYfUgbTl1Xy73mv8GYZjvk3A32gPGA10Xd92xOT+w1rcc92IUFEGXA/GfTCH56VSvp+mBl1SKNna+AshcH5KAtDElds7H4n4n2kJs1ynLiLwJWTpj6PmuinbrcRSNANWAQESq5b0eu0WeFTIC3vFUWoxtgvSsXZFlzK3db97uld+zVnbunHBfZjDldM0zDWpaPYekrBIRAaRFg5tsDVuiC5YuobMSA0pqBEou2hVU43vUVz3bMZHFlr+t+A6CjErHgf0qM4A7hNjR1nslMuvbcmLe/8N3Pqq/2VZ37NxDPZiMysetYMP/A/ay3edzMzHFY6tjkouC/PYzDFteRaPo0EF/fL1z1P0TaYjovI4qMPVe0TVzu1u6rgeAOan6uYk1m+rFEypudfX2BvEmgT8VjwT/lBc2nnSONHadAqe/YJIZuYuDLyVjo13anKwLW20RnnpCq7h7D/wNoit2c87DXC8b9XotYkWjqLwAOzSNuO7vq2wlXM9MPk+3B8+007JWtaSclQ6pi3LMA6102+YtXbweujxT+IxGrO8SrXIbzKwLWyLMRaUrfCeYT+p9dq/JcB/qm+wyY7jIsunH5otp1I3vMdaExU3he17uI+V+5GJU+QkAIlBoBvrM6Ejp3SQs5ettYqVGReEcg0MKBSHLdiWCr3UNW+i3OFovV4Svba0v2OyocTZ9BzDeDUOkhSxgG77v83tD/vLr6e9Zsrlw/MX0iMdo848D63SG2KMP44IrWGn38piRbpCl9Khi3AKwfKD1rJlfss6p9witui1cDCYebuo6gvs8o72oB6SNzTM+ZbM5b1V7/P88moxjHWmCu7vr6W0eEvmPzmtJ1sY62++ZGEbC2n+zs7aOVlcsA1jWJvGp6F5Iu6t7oVQDhc3gsrU89A6L3ehSDfmbJAHgyEQt9wqMYbHEbiXb+FkzvB2UvmSlGvBqIRwt8f03EQu4f89wJERGwdr5UGqKdJzPRuWDaB8VfFtELoCdj0H6rW4Mj1l7PebGFo2tnEoxXbVnxYkQICAE/EdgK8M2JWJ0cHfTTrJRILJGm9FfA2dvjcv4+cSi1HpA6pae7+8dOFwe2M/7+I07XMLAPFXgUx854wNa0RHv9Kltt5mks0pQ6DowH8xzmRPceUsYZWyp6fuj20bdikonMS30SzNeA1btseKgsJpTsWNNCw6qFoUTRhgo10MIqkug6FuAfFmrCnnGk6730Eqn/i7fVlNTt3pGmrrlg624GAk58TjHTZ5Lt9h4lFAFrx1Wrb+c0jbTeXRu0Z00XZMUEYVGiLdRU0GgbBoWjqd8TcISXO50BWMz4awWpry6L1a6wIS1XTTREU/9lYC8AymbHSxKxkBeXuQybhghYw89upDF1Cwin9x8hH/r8v5qJmgKZ9X8YbrQ1tnYseqzHGXzgjv9O3SCcw+s3LdpVKYecf3CEo4mgonFXMONMmxeqmBMCQsBDAkR0R3z978/B4mP1mw9pQiA/AvrHYTJ9Mhhe7sIaiNnMnqhX5v4rF9TrYqI+bkwN0a5mBt/V/wCY8/exU0n1HfOqWa7PZjrlIye7LawaEqkTPCy+PTjM7Joii98TXxh6Kaf4PevEFG5MN5Giu8Gsjwt6vqbcLty+U/Sz2ZhWnfqq8q6g++DQ9HGJuGUEPr1yQbW/P6ey4t+6OYDV6uiPfaIMkfp0fEHN7+368xEBa3iS06KpcxQwcFTdLtz52rEIaI/HQvPyHWhL/yOeCITfccDfaNgf0LZ4yNWI/q7Vz96/S8RCn8l1kJf99LF0YusKHnK7oI0x6epJ/0y0BX1xO6EIWDvObCSa+g6As4aKlwzrqgoae/f08PjUk1fA3OVO/hYOHLQKtNbs0jelHjDEiwlSv6gaa81Zekdow3BrK6+Hm6mNHXsbpP5r4yIVU0JACHhKgO9OxEJneHW0w9PUxbltBHQNBKNy7HxmXGGb0eIMZQUYw1R7Ll9UqwUZX7VIY+ccEA0Ifnl9DzuXiDqmekPNr5Ys9scx4obGdXtCmRcxw7O39ENYZ9cUw3xnMjZpqXPzUJjlhmjXiQzre/2jfbGmFOGbmyvNe/2ye62hMXUsE/0QYLt3DBQ2afqWJOY51sTQ4uQt5LtLAwbtrtX5Ob+mGJ9MtId+WyjMoeNEwNo5yUg0pXdh7e7KvO48DL3T96ZELHSLXXOen53srYQvAPzu/MY51psBfiQRq/uCYx6KMZwVs9MvAtjPhXXzYiIWGipqFBN9wWNFwNoeXSSauhnAN4YCJVInx9tqC7jxl2nWbFRsqE7rmqPvHGyXGVdi4+brh9uJldcXUnjO2r3IMP7p1RXMBa8+GSgEhMCOBBh/V6ArVti8bV9Qj04CDdGukxnZOjN++XG4bSKyR5jeDK7CYn0DiheNCbOhwhNTXyGm+7yIYNc+yTTM7pnLF+3uK7GvIdp5IoMW+XFNGWbPHss3TUl4vaYiu3UeC6W8LHq/k6VFJgy1d6K15jU/rffI3I6vQGULuvvrc8qir5oVtQ+vmoqtaMkeNfSg9X1ONUxIf4kJP3I7ADKtL8Q3PfEru3aDi4C16xmMRFO6WPJEt+d5e3/0oDUmcMbKu6pTXsQRaUr/Bcz65jtffR4Q8NP4huBxmPXWbmjPPg/empEWVlgCClen/k6gYY57OTZry5TKfG3Fgsl/dsxDjoZFwHobVENj6gYmnDcYHYE3MPjriVh90WUfItFOfdHEdiJWT0/v5DX3TVm7g2CW4/xt69YwLzWLLZT8bU/55i39hUCZEdDHYu5JxILzyywvScdDApFoShdmvbfQa9WdDp0rODymItQJLEW+V/bmHVsLq5mppRXrzYkVVVsrjyMyvStKvsvgqQdG736J1sm+EhoGQm5o6jyJmWJ+XVMZg6aPr6pd4+aa2rhuQqCqIvAlJhrYcZX38nR2APVYynyXX4/xDtqtltdLXGeZDVinly3iT4wdm+5YGprZ6/iPV2aadSwquqeAtm5JfZaYfupOnjt6IWAjQ30uEat9yo4YRMAamWIkmuoCUDNyT+d6ENAWN5adhtaDdRFn11s4mv4Hgd/jwq6i/HNj/Jg3bp4zZspWa2lopokW0sXfHW0HNXPF+qqlytxcNyXD1sMgeLITikH/TMaCXhXaf1v3aErfz3037DnWJhnByudbyZP1n2tSk5vW7VHJpj56fPy2MYweaPGqvU6/aMQRLRxIppbmdNvxzr7fItGUPlY/c/Dfo2l0169qndo5ONa8v7ynN3XuazH+AZC+5luaEBACpUaA9O0ndG+iLXhGqYUu8fqfQEM0/XUG3+PLh8FB+KzeLXU8RmWP7dR27Z4p+uhcC6sZy5dX9lRWZd/kGmblJwB6yOczZlqqYj9f1+HRN5/VdM2DxXf7fE319lqV01TFRn0ltE1rqkXNWH5y/5raHQav+xgs62GfrymLLLzLz/XCIo2pTxBwGxP28TNLNtWXxqvM7zYGerM7R1e17r7FluP+RzwRmPrOvbO3nRrm2IMJvJDBe/qBBYE/Fo/VPW5HLCJg5UbRDzuxmNE6ceMb85csnuXJTdiRxtSLIOjC4Xn/Ls6Nsg29GAvNQHf2uX1c1e7m0hBsEbi1YLVmfDJgbTJo3KaqQPdY+gWYP2xDxEWZEAGrKHz2Dp7NRsOE9LXb776iHgafnoyFtr2czWe3GgOfHs/Wn/7XULdp8Iuavo1S/PhbmywmDyRBxH+w1m/53OCjhAX9oYab0u8m5pK9rtzeWRVrQqCkCOjr4du9vP2lpGhJsHkTiDR2fAGgm0Ckb6cplbaoamu2IGXBbesY3odAuiD7wQUbcX0gP2yYY05Zvmi3N1x3nYfDcGPnMQS6DYRIHsM87UpM36/s5sJ3uAaB7h7rnTCNO8B8qKfJ5OOc8axh9Rzvt+OoQ1MIN6ZPILLaSullrKLK/Sq29OjaRTu0TEWwZ/yml7JHD9ej2uiurzImrjd2OBaVqTDHmRWBo2FlXzL4romA5c2U+GEnlj4VYJjrv7F80R5b3aYQblrzbuLAI0CpfMfwkxYbV43ttna4zXRdlcWVgV5zXNUms+qNHu6esh+tNzsqhvs80Jy7x9CFAOYBXOc29135EwHLP7MRmZv+CpTVMvh4H4PnJ2N1dw6OMh8Ba2CcYhy+oiH47GARKxJNvfTWTdT7gN4WlKnSCMbvqdE7RrOtIAErq46Z+DMI1f7BK5EIASGQA4FVYNycaA/pGySkCQFHCIQbU1Ei3K5fFDriQIzaQWC9YfKhyxfVlcTFLJHGrjkg8y6AZE3ZMftO2GBsIAOHxxeEljhh3m6bDY2dJzGR3tk33m7b7trTFy9Y91vg/xCogoj0caj3gLGvu3EU700ErOIZFmohEk2l9ebRQsfbM47uNo2t561qnbrZHnu5WwlHU38h4BBHb9vMPZzCexJWg6GL079ggTsUqWkEfJYZexf6u7/wYAofKQJW4ezsHhlpSl311g02lw2yu5mBswbvvtL/NlTA6jsW/tZOwe2b1o4Cg/8XKew/9Lmh/6KJqQP9SNHF8Wm1Nw4coy1IwNLGpkfXHmjB+IfdkMSeEBACjhHYClCb1L1yjK8YHkQg3JiaRwQtlO4mYPxGgNJk8Qf9fMxrOGKRpq65YPP2t3b4yZry25ICupgyRyTbJutbqkqm9V8+od8iy5ryfNbIUqQ+vqKt5g92hCJHCPOjOPOEVHX3GFoLcFV+I+3uTXf29PRcuOa+Kdnj2G62SDT9HMC6WLmvirq7ycAvvkTA8sdMTG1eNc6wxl4Fts7dJiYBZ8djoduGRrijgGV9IR6r/+XgfpFo+hcAPgVwxcD/Z6IDkm21/x58RD4STb8K8DsGi668YfO4gWOEBQtYkWhanxV+wm9bDv0x3RKFEPAbAd4KqPZELHi63yKTeMqXQENTutlivomACeWbZallRp1s4iPJRUF9ZXHJtXA01fTWetLXOMsOcL/MHiNlWebHVi6a9IJfQso1jhlzlo2xAjWnMJvXAeTxD/dcoy7XfvQ6W9ZXkwvrnrUjQxGw8qXIFGnqWgTmk/IdaXP/XjDdmGiovcKNouVDY+8TsfAegHMqRm1z7mKujwCD8VyiPaRviPS0FXIsLt+A/VzEvaGp80Jm6OOD274fqQgBS7OJRFN/AfB2aQRWR1Wt7vzN0sf26h5gF27smEektnsJbouAlQ1gTuchMOhv+U6U9BcCQsBNAtRN4PvisdA8N72KLyGQ/Z5oTJ8C4uu8v65b5gPAGovVJ1e215Z0DUstjDLzjSJieb+mmXmtQcanVsRq/+l9NIVFsEdj1wEZsi4HcLTsvCiMoS2jGJ9MtId+a4utvh9Juvi9gztp6OeJWPAYu+L1gx19i9hribS+kbbB43h+ZxEuX9kW+qsXcUSiqb8D0DfgObh+vMisZHxuYOJFyba6omqT2pHtaBewwo0dLUTqirdZcjcI5yTa6naoo5jLDqxhBSzwMVXjuh4bejt4Q2NqDRMnixEcAAAgAElEQVQmDfjutSonvbFwQof+74J3YOnB/cXcHwOw7YyiHYtFbAgBIWAjAeI/EtHppVKXxMbMxZRPCESinacB9G2vr+v2CQ6vwlitYH52RWxSyQoNA+DCs3ksqrvmE1jXZJCjX16tKOANsPH5RHuN3rFQ0m1aNDVbga4DeI9in41LGoSXwYuA5SX9bb71rsSMUf1fAqZ7GxDfY42pvGzlXdUpL+IQEcsL6tt8vpiIhQ7wNIJ+5yJgbS9gMfArUtySWFCnRd7t2ogCVkuLisRPn8JkPEJ9R3V1e9Mw+JDlrTvWYx0qYIHNaxIbn7wci481ixKwtNdpTalDFePP8oXvhz8ziUEIbE+AgY3EiCXaQ+cIGyHgGYEWDkTi6TNB2SKQNZ7FMVodM1aSMo6Kt9XscGNRqSLZI7pqusmV5zJRY+kX4S7JWVhFoGPjkdq/DL49qCQzGfihoou6A9eDaEop51GKsTM4YSg6fsWCkP49YUuTHViFY5zazOMMq+tFcLYGjWeNiO6w2GhJxibqAvOut0hj6m8gHCQ7sdxDz0CGCE8m2kIfd8/rzj2JgDVkBxbhcp4QvCl5C20ZSm0HAYvo61Ym88RAP1Y8zqDAIs4e0c22BIF/mDEqb1zVWt25g70hO7AAXpWIhKbro8VFC1h9u7Dws/5CW35YaxKDEBACfQTeBPP3Eu11ZwgQIeA1gWyB2CqcBYVzwF7fdOQ1DVf9JwzCscvb3rqmGMSuenbYWf+NyOeC8CU5Tugw7O3NJwF1QiJS80y5iFcD6UWiqUYCX8MgfWyh6GdkV2elVJ0RthBwVLwt9Ds7UxABqziadY0dE8aS0i899irOUpGjCZcn2oLf8ur7KxLt/DtAcpywyGnMfTgtU6Av+eVYughYQwQsxrk7u8k+T1aJAKvPL2uveXFnf9s77MACMFAvzJYv53C0830E0kcJg7kvUOkpBISAcwT4TTBEvHIOsFgugMDM+anq7i18BlidDXB9ASZkSH4ElrPFx9tVFDk/1+70nnFK1wyzF2cC1hzvr4B3J2cvvTCwApZ1cnJ63dPlJl5tE7GaUnMBXA3Olsew5TnZyznzv2/6RYasC1e31b1sZ6wiYBVPc8acrpqMsv5ChH2Kt1aoBbonQJVXLmvbbU2hFoodF4mm9AuggwGWmljFwtzleOoGrF8nYnW6HqEvWp6iTEEx+7mI+9AaWAS6cM9I7c1PtlBmaLL5sGJCEzL0tzETal9Zeoee9x3bMALWpknGstrnWw/uteWLefKJb0yqrAicBaKLC5o5GSQEhIBtBAjYyEzfT7QHZeeVbVTFkJ0Ewo1d8wHrUhpUnNFO+2IrS+B1i/G1le0hfdtLWbdpJ20IqUDvaSDoW1Ynl3Wy3ia3jEAnxmPBP3kbhvPeI41dc0DmJboWuNxO6CjvZYCak4jVPmW3FxGw7CEajq4PEsxnAZ5pj8X8rRD44nis7tr8R9o3IhJN6YLy+lY8W3472xdZuVjKihi/TsSCvhGvNNl8RJlCZ6LEBKz7TGV+a+WC+leG5jsMK/3MsP7tfvwOHnwrOfMWkHpfIhb8z3DshgpYCvTgig21X8NiKr4G1oDD6XM73msp+iFA7yx0AmWcEBACxRLQXwD8UCIW+kqxlmS8EHCSQLip80zi7EsPERxsB81LlUUnr1hoXz0Z20N0wGCkKX06mC8FIDWMbOdLS0FoTLQFn7bdtE8NRhpTnwDx6QAdDqDOp2GWcFj0GpPZlGyrf9KJJETAsonqbDamTUwfohhaZKywyWp+ZogvTYRD13q96zMSTekXQofmF7z0HpEAowdEv0psqP2yFidG7O9iBxGwht5CiDRYnZtor100koBFsL4Qj9X/cqBfJJq+A+CTtiv5YNFX+c1NP08ujuxYU2tIDSyLcNjK/nIYtqrIDdHOjzLo9y6uK3ElBITA2wR0fZuXFej8FbHgowJGCPidQEM0dRYDF4rgYOtMvUJM0Xh78BlbrZaIsXC08wwCLgGkELeNU/YqW9a85ML6P9posyRMZXefsHkKiPWO5t1LImjfB6l/oPJrFvGpK9vq/uBUuCJg2Ue2bxdW74MAeVVYe5Ei46oVbTXL7MuqMEsiYhXGbRejegD6VSIWPMZ2yzYYHPUCVlP6PGJuATBuACcBZ8djodvyFbB0/0g0/RCAzwBcuc2ewv7xBaElg+1Nb+rc12LSz7HbylPxhs3jBoQuewWspnUHMZvfAzDLhjUjJoSAEMiLAKUZ1oJkrE4LAtKEQEkQ6BexLpAfh8VOF28FlN4lc9po2iUzHLVwY+d8ItKfg7qGkbTCCeg34a8wqdOSbbWO7JIpPDR3R0ainacBpI8UypoqCj29TmwtZ7KuTMQm2X5scHBoImAVNVE7DH7HKRsn9fR2/wogfSuf643BFyRjdTe47ngYh+HG1J+IcIhnO9L8AMGeGHpAeDTRFvqiPebstzLaBaxItOtDAF8J8BHb6DJdwhs33TJ019QOtxAO2YGlx0caO74AMm4BeM8BezSMgNUvFOu/MWOgn2MClnYQjq5/HyjzPWIvC/7Zv4DFohDwOYH1DCxKxkJn+zxOCU8I7ECgoanzTMui44h4L4CkuHuea4SZ/0uK/qmUddOK1vp/5Dm8LLuHo+kzFDjKwB4AJpZlko4mxa8w6DXF5jXx9kmjcjffULyRxs7T0SeMhh1FX6bGCfifxbhkzOr0I0sf22vYor12pi4Clp00+2zNmLN2imkYD/fXgrLfwS4s+knAAjNFmrp+BiAE8AddBVEeziyAlgP8QiIW0rcI+7aNdgFLT0ykKXUVGJdtmyTCb9jkK4ZeEJSLgJW1N+QobvZoYDj4t4EjwjPmLBtjGtWvD3mx/UzVuPTHlt7R991h6w4sbXDW7CWVGyZOOQaMB327GiUwIVBeBES8Kq/5HJXZ6NuOTANnAKbe6SBHdXJfBS8R+Mx4rO7x3IeMjp7hpjXvBgcaCZgtO2fymXN+mVmdm2yo/Y3XNWfyidqNvpGmzlOJMZtB+lY2+ZzKHfrLUDgnsSD0m9yHFNdTBKzi+O1sdKRx01SirT9h4DBnPAxv1VcCVn+IM+e/WtW9OfTr7XanuAmlNH1lCPRbBu5LxIK+1wpEwALCjakoAVeA9KUmfY0YLZXduGXpA6ENA/+vUAGLFd2gAuq6+D01XdpWuDH1JSK0AagZsL21ypzQcfekN7f5d2LtR+Z1HsKWupfABzphX2wKASHQT4CxIbvzqj10ljARAuVAINKUOpeY5jNY73LYtnW4HHKzOYdVQPY4zpXx9jqpPbkLuA1NqbPZwjdBmGbzHJSXOcYGEF4B45JEe+i35ZWcfdlk3w4Hqk8HQ+94lt1Yu0DLjP8SIc5Mtybbg4/ZNwsjWxIBa2RGhfaY1pQKk4UfEUFfcOBK86OAlf2xPTsxFtXjfkng/QGSS2l2vRoyIPzSz0cGh4YvApbenMSVGyakrwHh3G18GH8n4osGvzzNVcAKN6ZuI2AOCNUD9ky29lnVXv+/SFP6g2Drp4NPYzDhz5iw+WPJW94u9G77DqyBQMJzO98PhXsIJCKWKx/t4mQUEtDi1UI5NjgKZ77MU25o6mhmqE+Bs7f9yC6HHedbXzncDrZ+lGivX1Xmy8GW9HStNQAfZ0A/k0gdox2pLmHw75nNhSvbJ//LFuhlbkTfpKpYHQ3iWcyYVObpFpLeS6TogviC4COFDC52jAhYxRLc9fjdm9MNAZMfAPABZz1lrb+qL+eIx0KLXfCVtwu9E6tnc+gbFqyPEuijeRso9wEMJsJjYGyOt4f0juiSaSJg9U1VpLFzDoj0McJttasAutO0+IZVC0MJ3SfcmD5P0du1siyLrxp6zHBg4sPR1K0K2Gvgv03C19kEGQp/3uHFkGHMTLROfD2776u/OSZg6fPB06PpL1qEn5TMKpVAhUDpENBvytsTbaFzSidkiVQI5Eeg/8vwGAb2kzpGWXYvMfPrILorGdPHFqTlSyDSmPoGCNH+h7Ax+Y4vv/78GkCvKtCdcntt/rM7c+7q+m415uuA9XXZjbWN30sALSWYbYOvUM+fbnEjHBawGIyfJ9r9W3y6OHq5jQ7PWbuXUsYvmByue8y4PPF68Fo8SZncIvOm157N6Ym9Ju7re17hD3kThe+8rgPjiVL9W2mIphYwcLKTBfsnGcHK51up13czNySgSLTrUsDSdSDHb/sn5rtMpusHRKxCc2hoXLcnlDmfGU0Adhtk59emEfzSqlbaPNi2cwJWtqB75/sIdDuA9xeakIwTAkJgBwL6vHEsEQt9Q9gIgXInoOsYEQIngfHVUbwbayuA/4DUtxLrax7BYn0NvbRCCUSinUeD6HNgfHrU7sbSP7+B/xDUTZuReaizvX5joTxlHNB/m+qHQHg/eNQeVe0E6CXAuiURq/u51+uiIZrSdZqcKhCtd77ekoiFbvI6Ty/9Tz6Rx4+pSh9vWVgAsr+u8kBuBL44Hqu71stcc/bdwiqc6NiTYNwB0McBHr2lEAgPEbA03hY6P2d+Pus4vTF9AhNfxsDejoTG+HuiIXg4Wvwtzurcw01dR5BlXQ0auuuS7iSL76ncLf3aQJH1fFg1NHZ+jBXpZ/zZ4LfFKwI9upnNrwz3fOKogKWDn9aUOlQxbgGyR0GkCQEhUAQBAjYy0CbiVREQZWhJEmiIpi9g8EF9bzVHUZ0Jwr+J6a+WZT6QXFj/x5KcPJ8GrXf4EbG+plnfIjXFp2E6EdaSrHil6H6vjnc5kZQfbOodfgw+jAj/N4ouo7BAWEKMh2DhR/GFoZf8MBc6hkg0te3Iib0x0S8TseAX7LVZmtZmzOmaYRpma59Y40hbwsyXJdvrHnLEukNGpzZvqDPMntsACgL4lENu/GpW39BoJtqCx4HePvbl12BHiisSTeli88eN1K+wf1cfTsRqnh58PK4wO+6MamjqOonZuhSDjv9pzwT81GI8ZjF+m+tuLK0REXgqMd2qP64HZ8BMj1QG8LXXW4Prh8vMcQGr7wuk60OApXdiHeAOXvEiBMqRAL8JUGsiFnq7iF45pik5CYFdEGiIdl7EpN5F4I+Wcd0Zq2/HFS0BrB8l2ur0teXSHCKQFUcJB4Ctj5S5OLoERC8yWYuTC0rrx6BDU++Y2XBjx3lE6r0AjihjcdQE4yUmfoHY+EmivfYXjgEt0HAkmvohgOMLHL6TYbwaoO+M9t1Xg+Ho4z9M5nd1nUF7WQPQxwfbQ1fbbtclg9ObN+1uWd03g1nfqKZ3/ZZtI/BPmVRP9frVc5YsntVTLonqeofE9M2hIkvx+dHTVeNSHy9k11Lxvgu30C9i6d+i+jbeysGWiHE7s/VX/f8so2JNRYb/sXxR7bqBPtMaO45UZEyGZRIpNZ9B+sX0djYAepgq1dyBWwmHi9QVAWtq86pxhjVmLpi1iKUKRyYjhcAoJUB4ExbuTbSH9AeoNCEw6glEmtIXM2Of/ttu3zn0S7QUATFoBQEvANwFVg/58QdhKXLNNeaGps4LLVb7aXG0/7iqK89IucZXYD995PzfDHodzA8n20M/LdCODCuAQDia1kdn9ifwJwCUxQ1lDKwgxj9A6AL4l344LrjTqWlh1ZBIdzHevu2qgGkcPKQHjJ8m2kP6uIu0QQTC0bUziY07QfikjWBeBKnLE221Jf8SZ+rcVEQp+jaBxwP0XoBn2MjJa1OLGbTVMraesqp16na1irwOzC7/DY2p25jQOKQ+U1HmLcJhK8N3/A0tLfqlZUm1yLyuL8CyPoPs8xLN3EnwL4PofmIrW+RdNwZdANC+AA+vBxEeYg40JWMT07sC4trDWV89LFwPkH4bJU0ICIHcCWx668H3nkQsdF7uQ6SnEBgdBBqaUl9mK3vryXgQHQWgtgQzf+mtekzPvlWX6TnDzPxs+aJJb5RgDmUTcqQppd8s7gvmAKA+B3Co1JJjxn+J+K/MeINBv1jZHvpLqeVQTvFmd/kx7w2Fqcw4nIAJpZYfAf9jxp+h6O+m2rp4VevUTv/nwNQQTV3b96PJjsavEOhSv96GZ0eGxdjQRd3JMG6zaafRv0DqinIQrwYznXZSMqQqxxwLiw4B0RSAS3JXlj4yxuCNYOKqbpy99IGQfllSti3SlP4gwDeDcXDfibniGhE/UDk2FF16B3UXZ8nb0dnbCUHHg3AQgLoiovkZGOvNQPf5uXy3FD0B+QQ6rTF1mCJcB0BuZsgHnPQdzQQ2E+OueHvpFkAczZMnubtLINyYalGEady30/fLsO+tu+2JZH8MEp4hBjPo8UQsqGssSPMTgWwx3vSlCogwtJhFx/j8NsxXATxNgGWx9WSyvV5fcS/NRwR2b+rcN8DqRALXM+P9INp7x+MTPgoYvBREf9SfUxbRH5Ntwfv9FF1OscxmI1KdbgMwJ6f+O++UJOCmeCykBRppOyEwbd6GdxpW5hYGf6YISP96a69Gi6939xWR3MDQqY0dewdIfZN1AXzO1gDSOzV925joEWJeq79jKioqL3ntuxPW+jZYBwKLNHWeCqazAbwDQMHF+Ql8v1W9pTl5S2SLA2G6bnJ6U+e+FtQxAO8JxkcA7JFbENxNoEcAdCnTvCyfl7euClg6memNqcMsRdeC+cO5JSe9hMAoJUDYwsy3J2N1+spSaUJACORIYPZsNv5anWoBqezbIGY+lIj279tR41nrZOBZIspupWbgT8m22gdKpXCnZ9T84rj5uYoGc49LmWhSNiTm2QB0cV7Xn6MGIdkK5peg1N+y/8+ynk1sDN0nt1T6ZdHsOo5wY+pLBHwAisYQc4DBxwM0+PpwDxLhTYB6AYR/960pejbRXvO9Uv+cOqiZK9aaaX0r3ASA8zr+R4S1zPgVEf8z3lanS6FIG4HAjDmd+2QMuomAz+YLi0AvMKwry1282p4LU7i5a3+ycFrf/+fJYBzuk2PHPwNRVqhiNm5ORqpfRwuV3JG3fNfhzvo3RLtOZvD7wHwUKO8bZ/Xxyh/39PSesea+Kfp0TZk1pnBjuomUPiLb14jZ4H6xjwCTAWtbYX+LN6mAdfOK1vrV+YLw5MGrIZr+P2br2yASESvfGZP+o4XAVma+Ndled9FoSVjyFAJOEYg0dR4F1t83VNH3jYoAYJ0MprEO+ewF4RUw6VsDsw96DCtpGZUPr2qt/q9DPsWsiwR0vSxA6eNg2ecoAlcxaA7AfWvMmZYE8ChAvf1rajNb/PTKhfX6Daa0UibQ/FxFJLPHZSDqOwLNFjHpo4bq3QAX/KZ/RCSElQD9EoxMX19ex6QeT7bVPjni2JLrwDS1eXVIZaq+TZS9Fa5hhBRMgJYBfG9PT/CeNfdRGf7gdG4SZzR37mNmcAaTmkHgHIQs+pfeQQqi35fbscF8Kc84pWuGmbG+BKaBOlkK4P0dP8HE+A2IXweUORBzBnTT6ljtinxzKOv+s9kIV3edSuATwHwAKJdnSf4eSK3s6e65pjzFq53M+Gw2ZoxHBbAcM2YszzzZcoT+XC36dlhPBCyAqaEp/TFmvvatL059ZlKaEBAC2whQN8i6OdFWd4lAEQJCwH4C/W/jLwdhh90OWpAgogCzWaWgpgKYyvptaLaR/pG3CsyrAKwBIQPK/r/tGjH3MNE/Eusf/wkWH7vtQdD+TMSiXwjMmMNjLCN1JRMNuU1Hi1tkMHMlZY8iYt/+H879ooR+k80bAFoBtl4HqdXMnCHVJ3xu15herd6wuq2cbnfyy/z5Lw6mSGPn5wH1IajhjqrwGGaKEPggQNfRGa7xVoCez95oqkVP4h0+q5j5tclG6N7nW/tE0dHQZs7nqp7NXXOYeB/9ea+A8Qwc0r+jcgWY/gXFvVlRj3lJor1u0Wjg4lSOkWh6fxBHs9+gfZ+F1QAFAd4M5k6ofkGe1FPJBbUPORVHSdud/WMjMvGIwwHjizt8LehnFuYAKVXDlhWGUmFY1tQhosp6gF8GqVdgWRuZKEP60OKQptj8/orXlvwbTx65w2dFSfNzKPiGptTHmfGh7LMk65v0SJdI2jt7YR3j9yB6deBz18ioKwffxudQSKPGrEcCFlB/2trdxnbTCQx1KYDwqCEuiQqBXRLQD5zq5kQsqP8upAkBIeABgVmzuXJ1ZXrM2KrMHoqMPaivNgXYUL1sZZazotdp3dZEsiPciyd3FLA8CFlc+piAPtL6p1pUUWbdXqSsg8H8TiKjT8Bii4k4RcArGeL/VPS+GV8+Y0bPaD6i4eOp9E1o+nZvZY2ZqWAdwTB23ElkWfon1GZi/mPGCP1l1VToNSU/SneYQaY9m7uqe9j6CJk8WQH/221j3Z+WLKYe30x2OQUym40pu70ZrFC9kzPYunGqsfuq0SSeOjOVTAc1I7A2s7keatM7AGMmMWYwqfED/og5BeLnDGReDKpJ6edb9Y7L4nfBOJNPaVqd1cKVG+MdRzOp9xCUQsZcXF9V96Ksb2fm0zMBS6ejt0haGf4Gc1aZH+dMimJVCJQEAV3K+Z9MxsPJWO1VJRGxBCkEhIAQEAJCQAgIASEgBISAEBACQsAlAp4KWDrH6dG1B1pkXAaGvv5c3xwlTQiMNgLM4BuUUs/EFwSllslom33JVwgIASEgBISAEBACQkAICAEhIARGJOC5gKUjnNaUOlQxrvT79aEj0pQOQqAAAkS4Mq6WfRutB4+aGhQFYJIhQkAICAEhIASEgBAQAkJACAgBITCKCfhCwNL8p89NHW4RrgThY6N4PiT1UUaAGS3J9pAWb6UJASEgBISAEBACQkAICAEhIASEgBAQAjsh4BsBKytiNaYOswgtQFbEkuOEsmzLmIC+dcW6KhELfVsKKZbxNEtqQkAICAEhIASEgBAQAkJACAgBIWALAV8JWDqjvuOEfB5AnwB2vOLclqzFiBDwkAAxbmTgjURD8Fa5acrDiRDXQkAICAEhIASEgBAQAkJACAgBIVAyBHwnYGVFrMY1BxgqcAIzfxGgd5QMTQlUCIxEgPkS2hq4J/6Dmq6Rusq/CwEhIASEgBAQAkJACAgBISAEhIAQEAJ9BHwpYOnAwid1TkMljiSmUwD8n0yYECh1AgS6eEKk9uYlLdRT6rlI/EJACAgBISAEhIAQEAJCQAgIASEgBNwk4FsBS0OYNZsr1++27jCQdTkRPuImGPElBGwjQLiZmZYHzPVtyxftsdU2u2JICAgBISAEhIAQEAJCQAgIASEgBITAKCHgawFrYA6mNaYOI+BbImKNklVZRmkS8UUGxixc1jZ+rRRrL6OJlVSEgBAQAkJACAgBISAEhIAQEAJCwFUCJSFgaSK6uDtZ+LaIWK6uD3FWMAFaCvDdPT29rWvum7KpYDMyUAgIASEgBISAEBACQkAICAEhIASEgBDwbw2s4eYmPLfz/Yown0l9GuCgzJ8Q8CMBvevKgnoR6zc9kVwc2eLHGCUmISAEhIAQEAJCQAgIASEgBISAEBACpUSgZHZgDUCd2tixd4DUuxk4S4q7l9JSK/9YmbCWYN1QtUUtWPpAaEP5ZywZCgEhIASEgBAQAkJACAgBISAEhIAQcIdAyQlYWSwtrKYl0+9TjBsAfNAdVOJFCOycABFdBDL/s6WCn+y4e9KbwkoICAEhIASEgBAQAkJACAgBISAEhIAQsI9AaQpY/flH5nUewhbNA/hoAtXbh0UsCYEcCRB+DEs9Zlj4+fJFtetyHCXdhIAQEAJCQAgIASEgBISAEBACQkAICIE8CJS0gKXznN60bg/LNN/JClcQcFgeuUtXIVAcAeZLzAB+VtsVen3JYuopzpiMFgJCQAgIASEgBISAEBACQkAICAEhIAR2RqDkBayBxCKNHQeD1NUAHwlQlUy5EHCMANGlxOaLFir/lIxNTDvmRwwLASEgBISAEBACQkAICAEhIASEgBAQAlkCZSNg6WQi0Tf2B1dMBeHbAA6WORYCdhIgoA2E35g9FU+s/H51yk7bYksICAEhIASEgBAQAkJACAgBISAEhIAQ2DmBshKwBtKcHu060IT1eQLmAQjLAhACRRJYDcZNAVI/nR6pWflkC2WKtCfDhYAQEAJCQAgIASEgBISAEBACQkAICIE8CJSlgKXzn9q8oY6s3pmK6bsAH5AHE+kqBPoIEFlk8VUE/JYs9bIUaZeFIQSEgBAQAkJACAgBISAEhIAQEAJCwBsCZStgDeCc1rjmAEU0ETDuAbCfN5jFa8kRIFwN0O9MFXh5VWt1Z8nFLwELASEgBISAEBACQkAICAEhIASEgBAoIwJlL2ANzFW4Of0uyvDuILoL4JllNIeSip0EmK9RTI92o+fVNxbu3mGnabElBISAEBACQkAICAEhIASEgBAQAkJACBRGYNQIWFk8s9mIVHftS4r3Y8Z3wJhWGDYZVWYETBBdz2w9bBmVr8uOqzKbXUlHCAgBISAEhIAQEAJCQAgIASEgBEqewOgSsPqna8YcHmMaXTMJ1kEM3AhQfcnPpCRQCIHXAdypLOuPvRVVcRGuCkEoY4SAEBACQkAICAEhIASEgBAQAkJACDhPYFQKWANYpzavGhforZqRCRhTDcv6AcAiZDm/5vzg4UeKjNZeq3fluG61eukDoQ1+CEpiEAJCQAgIASEgBISAEBACQkAICAEhIASGJzCqBaxtSFo4MDXe+Y6AoQJs4SkAQVkw5UiA7yZFdxNZ6RVT6zrQQplyzFJyEgJCQAgIASEgBISAEBACQkAICAEhUG4ERMAaMqPh6NqZFpNhkPolAF3sXRiV9qp/hgi3ZSzr3zS2qnPlXdWp0k5HohcCQkAICAEhIASEgBAQAkJACAgBITD6CIg4s5M537053WCYmUrDMiZZBv4IRmD0LY+SzdgEW4uY+Dpi2lw1vi619A7qLtlsJHAhIASEgBAQAkJACAgBISAEhIAQEAKjnIAIWCMtgNls7FG9LswmyFTWpSBERxoi/+4ZgQcNU11EBuDDm/4AAAKlSURBVNispA3xe2q6PItEHAsBISAEhIAQEAJCQAgIASEgBISAEBACthEQASsPlDPmLKvpDVTvZlhGJSvzQTAOyWO4dHWEAP3cIp6vTRsVxiYRrRyBLEaFgBAQAkJACAgBISAEhIAQEAJCQAh4SkAErILwM4WjG2oDZnclByrHmpZ5CcnOrIJIFjBoPcAPGKZ1dd/YTVuXL9pjXQF2ZIgQEAJCQAgIASEgBISAEBACQkAICAEhUCIERMAqeqKY6k/rGG9sMceONZTqgTFLMT1etFkxMIgAPa8ss7kbmYSqYDa3qC1r7puySRAJASEgBISAEBACQkAICAEhIASEgBAQAqODgAhYds/zbDYa6tZXa7NmrzneAL7MjFvsdlPm9l612Pq6UVXxgs5zbHdv5n8NdZvQQlaZ5y3pCQEhIASEgBAQAkJACAgBISAEhIAQEALDEBABy9FlwXRQMwIrMp1jtBurex2Nr5h4AAzVDtBMR12XinHCFgY9tNUyTxkI2eg1rTVbn9qKxceapZKGxCkEhIAQEAJCQAgIASEgBISAEBACQkAIOEdABCzn2A5vuYXVjOXLKzObAtvYU83Y/WHiGhB9zO1wXPWnxSpW12HDmzcO9jsRG8wli2f1uBqLOBMCQkAICAEhIASEgBAQAkJACAgBISAESoaACFi+mComtMCYtQRqcDibq1fvnuHKE4ioiYE9fBFqDkEQ4Q9QdMWErtq/bd/9JSzBfiYWk+ysyoGjdBECQkAICAEhIASEgBAQAkJACAgBISAE+giIgOX7lZAVt3Y6TwetgrHGTB2oFH2WGUeCcQCAbA0uWxthJYBnQNaTFqtHVi598Q0cccTwNamuAIOIbfUvxoSAEBACQkAICAEhIASEgBAQAkJACAiBUUvg/wEqVzAKjL70ggAAAABJRU5ErkJggg==;" vertex="1" parent="1">
          <mxGeometry x="555" y="410" width="87.92" height="20" as="geometry" />
        </mxCell>
        <mxCell id="hxm4mnNIkU-bXcJakGqi-17" value="" style="shape=image;verticalLabelPosition=bottom;labelBackgroundColor=default;verticalAlign=top;aspect=fixed;imageAspect=0;image=https://upload.wikimedia.org/wikipedia/commons/thumb/d/d9/Node.js_logo.svg/590px-Node.js_logo.svg.png;" vertex="1" parent="1">
          <mxGeometry x="581.5" y="592.26" width="107" height="65.47" as="geometry" />
        </mxCell>
        <mxCell id="hxm4mnNIkU-bXcJakGqi-18" value="" style="shape=image;verticalLabelPosition=bottom;labelBackgroundColor=default;verticalAlign=top;aspect=fixed;imageAspect=0;image=https://media.dev.to/cdn-cgi/image/width=1600,height=900,fit=cover,gravity=auto,format=auto/https%3A%2F%2Fdev-to-uploads.s3.amazonaws.com%2Fuploads%2Farticles%2Fwsrrq6s1f12v8jhe2ubj.png;" vertex="1" parent="1">
          <mxGeometry x="-30" y="230" width="213.32" height="120" as="geometry" />
        </mxCell>
        <mxCell id="hxm4mnNIkU-bXcJakGqi-22" value="" style="shape=flexArrow;endArrow=classic;html=1;rounded=0;fillColor=#000000;" edge="1" parent="1">
          <mxGeometry width="50" height="50" relative="1" as="geometry">
            <mxPoint x="290" y="510" as="sourcePoint" />
            <mxPoint x="509.99" y="510" as="targetPoint" />
          </mxGeometry>
        </mxCell>
        <mxCell id="hxm4mnNIkU-bXcJakGqi-23" value="" style="shape=flexArrow;endArrow=classic;html=1;rounded=0;fillColor=#000000;" edge="1" parent="1">
          <mxGeometry width="50" height="50" relative="1" as="geometry">
            <mxPoint x="505.0000000000002" y="680" as="sourcePoint" />
            <mxPoint x="285.0100000000002" y="680" as="targetPoint" />
          </mxGeometry>
        </mxCell>
      </root>
    </mxGraphModel>
  </diagram>
</mxfile>
